<svg width="32" height="31" viewBox="0 0 32 31" fill="none" xmlns="http://www.w3.org/2000/svg">
<g clip-path="url(#clip0_671_481)">
<path fill-rule="evenodd" clip-rule="evenodd" d="M0.5 11.1909C0.5 7.27376 0.5 5.31516 1.26234 3.81899C1.93291 2.50292 3.00292 1.43291 4.31899 0.762337C5.81516 0 7.77376 0 11.6909 0H20.2315C24.1487 0 26.1073 0 27.6034 0.762337C28.9195 1.43291 29.9895 2.50292 30.6601 3.81899C31.4224 5.31516 31.4224 7.27376 31.4224 11.1909V19.7315C31.4224 23.6487 31.4224 25.6073 30.6601 27.1034C29.9895 28.4195 28.9195 29.4895 27.6034 30.1601C26.1073 30.9224 24.1487 30.9224 20.2315 30.9224H11.6909C7.77376 30.9224 5.81516 30.9224 4.31899 30.1601C3.00292 29.4895 1.93291 28.4195 1.26234 27.1034C0.5 25.6073 0.5 23.6487 0.5 19.7315V11.1909ZM16.6737 9.09276L12.8154 15.6245L16.9433 22.5603C17.0291 22.7175 16.9433 22.7523 16.819 22.7523H13.8734C13.6659 22.7523 13.5207 22.7448 13.4377 22.6029C13.1608 22.0497 12.8843 21.5001 12.6079 20.9539C12.3311 20.4081 12.0373 19.8513 11.7264 19.2838C11.4152 18.7167 11.1075 18.1423 10.8032 17.5605C10.5974 17.9825 10.3744 18.4045 10.1514 18.8264C10.0746 18.9717 9.99774 19.1172 9.92161 19.2626C9.62409 19.83 9.33022 20.3938 9.04 20.9539C8.74961 21.5144 8.45228 22.0711 8.14804 22.6241C8.09261 22.7517 7.99567 22.7649 7.85757 22.7649H5.01572C4.90406 22.7649 4.89059 22.681 4.9535 22.5816L8.95702 15.8372L5.05718 9.07144C4.98635 8.97492 5.04731 8.8721 5.16092 8.87994H8.08576C8.21241 8.87288 8.32433 8.92058 8.39692 9.02892C8.64586 9.59635 8.92244 10.1638 9.22666 10.731C9.53066 11.2984 9.83845 11.8588 10.1498 12.4117C10.461 12.9649 10.7687 13.5252 11.0314 14.0926C11.3078 13.5111 11.5879 12.9438 11.8715 12.3905C12.1549 11.8373 12.4452 11.2806 12.7427 10.7204C13.04 10.1602 13.3269 9.60353 13.6036 9.05024C13.6404 8.92887 13.7283 8.86735 13.8525 8.87994H16.5699C16.6737 8.87994 16.7166 9.02164 16.6737 9.09276ZM17.9199 20.6349C18.8831 22.3038 20.7993 23.0571 22.6287 23.0285C24.0265 23.022 25.4238 22.7511 26.7152 22.1987C26.7937 22.1617 26.8448 22.0743 26.8398 21.9859C26.831 21.8418 26.8206 21.6978 26.8103 21.5538C26.7835 21.1805 26.7567 20.8071 26.7567 20.4328V7.85888C26.7669 7.7856 26.7037 7.72077 26.6323 7.73124H24.0185C23.9356 7.73124 23.8941 7.78109 23.8941 7.88017V12.0715C21.5743 11.8584 19.1321 12.6703 17.9199 14.8373C17.4501 15.6866 17.2068 16.6479 17.2146 17.6244C17.2145 18.8303 17.4496 19.8337 17.9199 20.6349ZM23.8941 14.582V20.3902C21.8959 20.9897 20.1152 19.5625 20.1602 17.4968C20.16 15.4987 21.9994 14.0556 23.8941 14.582Z" fill="white"/>
</g>
<defs>
<clipPath id="clip0_671_481">
<rect width="31" height="31" fill="white" transform="translate(0.5)"/>
</clipPath>
</defs>
</svg>
