<svg width="31" height="30" viewBox="0 0 31 30" fill="none" xmlns="http://www.w3.org/2000/svg">
<g clip-path="url(#clip0_671_483)">
<path d="M15.5 0.999996L15.7747 0.0384759C15.5952 -0.0128253 15.4048 -0.0128253 15.2253 0.0384759L15.5 0.999996ZM1.50005 4.99998L1.22533 4.03846C0.756207 4.1725 0.452291 4.6255 0.50617 5.11042L1.50005 4.99998ZM3.50004 22.9999L2.50617 23.1103C2.54363 23.4475 2.74942 23.7427 3.05282 23.8943L3.50004 22.9999ZM15.5 28.9999L15.0528 29.8943C15.3343 30.0351 15.6657 30.0351 15.9472 29.8943L15.5 28.9999ZM27.4999 22.9999L27.9471 23.8943C28.2505 23.7427 28.4563 23.4475 28.4937 23.1103L27.4999 22.9999ZM29.4999 4.99998L30.4937 5.11042C30.5477 4.6255 30.2437 4.1725 29.7747 4.03846L29.4999 4.99998ZM15.5 5.99998L16.4162 5.59916L15.5 3.50509L14.5838 5.59916L15.5 5.99998ZM15.2253 0.0384759L1.22533 4.03846L1.77477 5.9615L15.7747 1.96152L15.2253 0.0384759ZM0.50617 5.11042L2.50617 23.1103L4.49392 22.8895L2.49393 4.88954L0.50617 5.11042ZM3.05282 23.8943L15.0528 29.8943L15.9472 28.1055L3.94726 22.1055L3.05282 23.8943ZM15.9472 29.8943L27.9471 23.8943L27.0527 22.1055L15.0528 28.1055L15.9472 29.8943ZM28.4937 23.1103L30.4937 5.11042L28.5061 4.88954L26.5062 22.8895L28.4937 23.1103ZM29.7747 4.03846L15.7747 0.0384759L15.2253 1.96152L29.2251 5.9615L29.7747 4.03846ZM9.41618 22.4007L16.4162 6.40079L14.5838 5.59916L7.58387 21.5991L9.41618 22.4007ZM14.5838 6.40079L21.5838 22.4007L23.4162 21.5991L16.4162 5.59916L14.5838 6.40079ZM10.5 17.9999H20.5V15.9999H10.5V17.9999Z" fill="white"/>
</g>
<defs>
<clipPath id="clip0_671_483">
<rect width="30" height="30" fill="white" transform="translate(0.5)"/>
</clipPath>
</defs>
</svg>
