<svg width="32" height="31" viewBox="0 0 32 31" fill="none" xmlns="http://www.w3.org/2000/svg">
<g clip-path="url(#clip0_671_485)">
<path d="M15.8575 1.02383L16.1388 0.039393C15.955 -0.013131 15.7601 -0.013131 15.5763 0.039393L15.8575 1.02383ZM1.52389 5.11916L1.24262 4.13473C0.762314 4.27196 0.451154 4.73576 0.506317 5.23224L1.52389 5.11916ZM3.57155 23.5482L2.55399 23.6612C2.59234 24.0064 2.80304 24.3087 3.11367 24.4639L3.57155 23.5482ZM15.8575 29.6911L15.3997 30.6069C15.6879 30.751 16.0272 30.751 16.3154 30.6069L15.8575 29.6911ZM28.1435 23.5482L28.6014 24.4639C28.912 24.3087 29.1227 24.0064 29.161 23.6612L28.1435 23.5482ZM30.1912 5.11916L31.2087 5.23224C31.264 4.73576 30.9527 4.27196 30.4726 4.13473L30.1912 5.11916ZM15.8575 6.143L16.7955 5.73262L15.8575 3.58864L14.9196 5.73262L15.8575 6.143ZM15.5763 0.039393L1.24262 4.13473L1.80516 6.1036L16.1388 2.00827L15.5763 0.039393ZM0.506317 5.23224L2.55399 23.6612L4.58912 23.4351L2.54146 5.00609L0.506317 5.23224ZM3.11367 24.4639L15.3997 30.6069L16.3154 28.7754L4.02943 22.6324L3.11367 24.4639ZM16.3154 30.6069L28.6014 24.4639L27.6857 22.6324L15.3997 28.7754L16.3154 30.6069ZM29.161 23.6612L31.2087 5.23224L29.1737 5.00609L27.1261 23.4351L29.161 23.6612ZM30.4726 4.13473L16.1388 0.039393L15.5763 2.00827L29.9099 6.1036L30.4726 4.13473ZM9.62871 22.9347L16.7955 6.55337L14.9196 5.73262L7.75272 22.114L9.62871 22.9347ZM14.9196 6.55337L22.0863 22.9347L23.9624 22.114L16.7955 5.73262L14.9196 6.55337ZM10.7384 18.429H20.9767V16.3813H10.7384V18.429Z" fill="white"/>
</g>
<defs>
<clipPath id="clip0_671_485">
<rect width="31" height="31" fill="white" transform="translate(0.5)"/>
</clipPath>
</defs>
</svg>
