<svg width="27" height="29" viewBox="0 0 27 29" fill="none" xmlns="http://www.w3.org/2000/svg">
<g clip-path="url(#clip0_671_487)">
<mask id="mask0_671_487" style="mask-type:luminance" maskUnits="userSpaceOnUse" x="0" y="0" width="27" height="29">
<path fill-rule="evenodd" clip-rule="evenodd" d="M26.2103 8.47575C26.2101 7.991 26.1061 7.56266 25.896 7.19513C25.6895 6.83353 25.3804 6.53054 24.9657 6.29097C23.4988 5.44711 22.0312 4.60435 20.5636 3.76159C18.6068 2.63793 16.6501 1.51427 14.6948 0.387988C13.7723 -0.143328 12.8778 -0.123857 11.9622 0.415086C11.142 0.897571 8.34367 2.50246 5.80261 3.9598C4.12259 4.92331 2.55492 5.8224 1.74593 6.28987C0.908839 6.77341 0.501509 7.51328 0.501308 8.47485C0.500654 10.4547 0.500654 12.4346 0.500654 14.4145C0.500654 16.3944 0.500654 18.3743 0.5 20.3542C0.5 20.8283 0.599695 21.2484 0.800593 21.6104C1.00712 21.9829 1.3206 22.2942 1.74483 22.5392C2.54981 23.0043 4.10588 23.8966 5.77652 24.8546C8.32453 26.3158 11.1391 27.9297 11.9618 28.4139C12.8778 28.9532 13.7723 28.9725 14.6951 28.441C16.6813 27.2969 18.6691 26.1555 20.6569 25.0141C22.0936 24.1891 23.5307 23.364 24.9668 22.538C25.1495 22.4325 25.3117 22.3147 25.4536 22.185C25.5177 22.1264 25.5776 22.0655 25.6334 22.0022C25.7412 21.8799 25.8338 21.7488 25.9113 21.6092C26.1118 21.2471 26.2116 20.8272 26.2116 20.3531C26.2116 20.3531 26.2116 12.4356 26.2103 8.47575Z" fill="white"/>
</mask>
<g mask="url(#mask0_671_487)">
<path d="M24.9657 6.29097L25.466 5.42508L25.4644 5.42416L24.9657 6.29097ZM5.80261 3.9598L5.30511 3.09234L5.30397 3.09299L5.80261 3.9598ZM5.80261 3.9598L6.29998 4.82734L6.30113 4.82668L5.80261 3.9598ZM5.77652 24.8546L5.27904 25.7221L5.28792 25.7271L5.77652 24.8546ZM5.77652 24.8546L6.27407 23.9871L6.2652 23.9821L5.77652 24.8546ZM20.6569 25.0141L20.1655 24.1431L20.1589 24.1469L20.6569 25.0141ZM20.6569 25.0141L21.1484 25.885L21.157 25.8801L20.6569 25.0141ZM20.6569 25.0141L20.1589 24.1469L20.1574 24.1478L20.6569 25.0141ZM24.9668 22.538L25.4654 23.4048L25.4668 23.404L24.9668 22.538ZM25.9113 21.6092L26.7856 22.0945L27.2633 21.2338L26.4102 20.7426L25.9113 21.6092ZM25.9113 21.6092L25.0364 21.1247L24.5599 21.9851L25.4122 22.4758L25.9113 21.6092ZM25.0275 7.69091C25.1381 7.88443 25.2101 8.13687 25.2103 8.47617L27.2103 8.47542C27.21 7.84522 27.0737 7.24028 26.7641 6.69875L25.0275 7.69091ZM24.4655 7.15686C24.7462 7.31903 24.9194 7.50145 25.0275 7.69091L26.7641 6.69875C26.4594 6.16501 26.0146 5.74203 25.466 5.42508L24.4655 7.15686ZM20.0656 4.62878C21.5332 5.47157 23.0005 6.31414 24.4671 7.15779L25.4644 5.42416C23.997 4.58007 22.5291 3.73713 21.0616 2.8944L20.0656 4.62878ZM14.1956 1.25452C16.1516 2.38118 18.1089 3.50517 20.0656 4.62878L21.0616 2.8944C19.1047 1.77069 17.1485 0.647357 15.1939 -0.478538L14.1956 1.25452ZM12.4692 1.277C12.8068 1.07833 13.0909 1.00329 13.3387 1.00011C13.5849 0.996948 13.864 1.06354 14.1956 1.25452L15.1939 -0.478538C14.6029 -0.818872 13.9737 -1.00821 13.3131 -0.999727C12.6542 -0.991267 12.033 -0.786986 11.4549 -0.446716L12.4692 1.277ZM6.29998 4.82734C8.83689 3.37238 11.6428 1.76316 12.4692 1.277L11.4549 -0.446716C10.641 0.032101 7.8503 1.63263 5.30511 3.09234L6.29998 4.82734ZM2.24612 7.15578C3.05332 6.68935 4.61909 5.79136 6.29998 4.82734L5.30511 3.09234C3.62596 4.05536 2.0564 4.95552 1.24561 5.42403L2.24612 7.15578ZM1.50131 8.47518C1.50144 7.85604 1.73076 7.45348 2.24612 7.15578L1.24561 5.42403C0.0867879 6.09342 -0.498419 7.17064 -0.498692 8.47464L1.50131 8.47518ZM1.50065 14.4145C1.50065 12.4346 1.50065 10.4549 1.50131 8.47518L-0.498692 8.47464C-0.499346 10.4547 -0.499346 12.4347 -0.499346 14.4145H1.50065ZM1.5 20.3545C1.50065 18.3744 1.50065 16.3944 1.50065 14.4145H-0.499346C-0.499346 16.3944 -0.499346 18.3742 -0.5 20.3539L1.5 20.3545ZM1.67513 21.1255C1.56881 20.9339 1.5 20.6858 1.5 20.3545L-0.5 20.3539C-0.5 20.9708 -0.369258 21.5632 -0.073785 22.0957L1.67513 21.1255ZM2.24513 21.6733C1.95855 21.5078 1.78344 21.3208 1.67513 21.1255L-0.073785 22.0957C0.230969 22.6452 0.682855 23.0807 1.24474 23.4051L2.24513 21.6733ZM6.27407 23.9871C4.60255 23.0286 3.04829 22.1374 2.24513 21.6733L1.24474 23.4051C2.05155 23.8713 3.60929 24.7646 5.27904 25.7221L6.27407 23.9871ZM12.4691 27.5522C11.64 27.0641 8.81781 25.4457 6.27407 23.9871L5.27904 25.7221C7.83131 27.1857 10.6382 28.7952 11.4545 29.2757L12.4691 27.5522ZM14.196 27.5745C13.8642 27.7656 13.5849 27.8322 13.3387 27.8291C13.0908 27.8259 12.8068 27.751 12.4691 27.5522L11.4545 29.2757C12.0328 29.6162 12.6541 29.8205 13.3131 29.8289C13.9739 29.8374 14.6032 29.6479 15.1941 29.3076L14.196 27.5745ZM20.1589 24.1469C18.1712 25.2883 16.183 26.43 14.196 27.5745L15.1941 29.3076C17.1796 28.1638 19.1669 27.0228 21.1548 25.8813L20.1589 24.1469ZM24.4683 21.6711C23.0325 22.4969 21.5956 23.3219 20.1589 24.1469L21.1548 25.8813C22.5914 25.0564 24.0289 24.231 25.4654 23.4048L24.4683 21.6711ZM24.779 21.4468C24.6947 21.5238 24.5921 21.5996 24.4669 21.6719L25.4668 23.404C25.707 23.2654 25.9287 23.1055 26.1282 22.9232L24.779 21.4468ZM24.8834 21.3408C24.8519 21.3766 24.8171 21.412 24.779 21.4468L26.1282 22.9232C26.2182 22.8409 26.3034 22.7544 26.3835 22.6635L24.8834 21.3408ZM25.0364 21.1247C24.9943 21.2005 24.9441 21.272 24.8834 21.3408L26.3835 22.6635C26.5385 22.4878 26.6728 22.2978 26.7856 22.0945L25.0364 21.1247ZM25.2116 20.3531C25.2116 20.6841 25.1429 20.9324 25.0364 21.1247L26.7856 22.0945C27.0801 21.5627 27.2116 20.9703 27.2116 20.3531H25.2116ZM25.2103 8.47617C25.2109 10.456 25.2112 13.4251 25.2114 15.8994C25.2115 17.1366 25.2115 18.25 25.2115 19.0541C25.2116 19.4562 25.2116 19.7809 25.2116 20.0052C25.2116 20.1173 25.2116 20.2042 25.2116 20.2632C25.2116 20.2927 25.2116 20.3151 25.2116 20.3302C25.2116 20.3378 25.2116 20.3435 25.2116 20.3473C25.2116 20.3492 25.2116 20.3507 25.2116 20.3516C25.2116 20.3521 25.2116 20.3529 25.2116 20.3531C25.2116 20.353 25.2116 20.3532 25.2116 20.3531C25.2116 20.3531 25.2116 20.3531 26.2116 20.3531C27.2116 20.3531 27.2116 20.3531 27.2116 20.3531C27.2116 20.3532 27.2116 20.353 27.2116 20.3531C27.2116 20.3529 27.2116 20.3521 27.2116 20.3516C27.2116 20.3507 27.2116 20.3492 27.2116 20.3473C27.2116 20.3435 27.2116 20.3378 27.2116 20.3302C27.2116 20.3151 27.2116 20.2927 27.2116 20.2632C27.2116 20.2042 27.2116 20.1172 27.2116 20.0051C27.2116 19.7809 27.2116 19.4562 27.2115 19.0541C27.2115 18.2499 27.2115 17.1365 27.2114 15.8993C27.2112 13.425 27.2109 10.4555 27.2103 8.47542L25.2103 8.47617Z" fill="white"/>
</g>
<path d="M20.8085 11.6714V13.0237H22.164V11.6714H22.8417V13.0237H24.1972V13.6998H22.8417V15.052H24.1972V15.7281H22.8417V17.0804H22.164V15.7281H20.8085V17.0804H20.1308V15.7281H18.7754V15.052H20.1308V13.6998H18.7754V13.0237H20.1308V11.6714H20.8085ZM22.164 13.6997H20.8085V15.052H22.164V13.6997Z" fill="white"/>
<path d="M13.4223 4.88023C16.9578 4.88023 20.0445 6.79573 21.6979 9.643L21.6818 9.6156L17.522 12.005C16.7025 10.6207 15.2001 9.68646 13.4766 9.66719L13.4222 9.66689C10.7941 9.66689 8.66335 11.7926 8.66335 14.4145C8.66249 15.2409 8.87891 16.0531 9.291 16.77C10.1113 18.1987 11.6534 19.1622 13.4223 19.1622C15.2023 19.1622 16.7531 18.1864 17.5692 16.7425L17.5494 16.7771L21.7028 19.1776C20.0676 22.0008 17.0231 23.9103 13.5288 23.9484L13.4223 23.949C9.87568 23.949 6.78022 22.0216 5.13098 19.1593C4.32588 17.762 3.86523 16.142 3.86523 14.4145C3.86523 9.14892 8.14406 4.88023 13.4223 4.88023Z" fill="white"/>
</g>
<defs>
<clipPath id="clip0_671_487">
<rect width="26" height="29" fill="white" transform="translate(0.5)"/>
</clipPath>
</defs>
</svg>
