<svg width="28" height="35" viewBox="0 0 28 35" fill="none" xmlns="http://www.w3.org/2000/svg">
<g clip-path="url(#clip0_671_494)">
<path d="M12.523 31.0843H14.7336C15.1349 31.0843 15.4621 31.4115 15.4621 31.8128V33.5834C15.4621 33.9837 15.1349 34.311 14.7336 34.311H12.523C12.1226 34.311 11.7953 33.9837 11.7953 33.5834V31.8128C11.7953 31.4115 12.1226 31.0843 12.523 31.0843ZM3.32363 9.77109C3.35129 15.2361 7.99256 23.7608 12.2829 29.644H12.7051C9.44229 23.6923 6.6596 16.3538 6.63502 10.5699C6.61213 5.32246 8.75546 1.99246 11.6482 0.0920559C11.006 0.151815 10.3627 0.240917 9.72517 0.363456C6.15776 1.78196 3.29805 4.70935 3.32363 9.77109ZM12.7668 0.0169206C11.0951 2.26662 9.80555 5.45648 9.81703 10.0852C9.8324 16.1268 11.2458 23.3081 13.0686 29.644H14.1888C16.0116 23.3081 17.425 16.1268 17.4405 10.0852C17.4519 5.45648 16.1624 2.26662 14.4907 0.0169206C13.9166 -0.0056402 13.3409 -0.0056402 12.7668 0.0169206ZM23.9338 9.77109C23.9062 15.2361 19.2649 23.7608 14.9746 29.644H14.5524C17.8151 23.6923 20.5979 16.3538 20.6222 10.5699C20.6454 5.32252 18.502 1.99246 15.6093 0.0920559C16.2515 0.151815 16.8949 0.240917 17.5315 0.363456C21.0997 1.78196 23.9593 4.70935 23.9338 9.77109ZM15.2659 29.644C20.0685 24.59 25.5173 16.1422 25.5533 9.63257C25.5751 5.64052 23.632 2.99319 20.9101 1.37647C24.2449 2.8072 26.7819 5.44782 26.7573 9.7398C26.7183 16.3519 20.3807 25.0871 15.3494 29.644H15.2659ZM11.9917 29.644C7.18897 24.5901 1.74021 16.1422 1.70416 9.63257C1.6824 5.64052 3.62471 2.99319 6.34657 1.37647C3.01268 2.80727 0.475602 5.44788 0.500177 9.7398C0.539323 16.3519 6.87688 25.0871 11.9081 29.644H11.9917Z" fill="white"/>
</g>
<defs>
<clipPath id="clip0_671_494">
<rect width="27" height="35" fill="white" transform="translate(0.5)"/>
</clipPath>
</defs>
</svg>
