<svg width="37" height="22" viewBox="0 0 37 22" fill="none" xmlns="http://www.w3.org/2000/svg">
<g clip-path="url(#clip0_671_496)">
<path d="M25.8006 10.7083L18.4146 0.823473H19.3701C20.0504 0.823473 20.6909 1.14638 21.1023 1.69746L26.8184 9.34748L32.5346 1.69746C32.9452 1.14638 33.5857 0.823473 34.2659 0.823473H35.2215L27.8355 10.7083L35.5664 21.0544H34.6109C33.9307 21.0544 33.2902 20.7315 32.8788 20.1804L26.8176 12.0691L20.7565 20.1804C20.3451 20.7307 19.7046 21.0544 19.0244 21.0544H18.0688L25.8006 10.7083ZM2.11955 11.532V12.177C2.11955 15.6359 4.36748 18.7933 7.68107 19.5676C11.2757 20.4078 14.556 18.5404 15.9634 15.579C16.1821 15.1194 16.6372 14.827 17.1384 14.827H17.9709C16.9028 18.6615 13.4232 21.4655 9.30062 21.416C4.36829 21.3567 0.5 17.0461 0.5 11.649V11.532V9.88456V9.29476C0.5 4.82435 3.58686 0.832533 7.92643 0.12165C13.5009 -0.791872 18.315 3.56239 18.315 9.06082V11.532H2.11955ZM2.11955 9.88456H16.6955V9.06082C16.6955 4.40837 12.483 0.757574 7.72642 1.83831C4.39015 2.59697 2.11955 5.76753 2.11955 9.64567V9.88456Z" fill="white"/>
</g>
<defs>
<clipPath id="clip0_671_496">
<rect width="36" height="22" fill="white" transform="translate(0.5)"/>
</clipPath>
</defs>
</svg>
