<svg width="24" height="35" viewBox="0 0 24 35" fill="none" xmlns="http://www.w3.org/2000/svg">
<g clip-path="url(#clip0_671_498)">
<path d="M5.61212 0C2.78878 0 0.5 2.28878 0.5 5.11212C0.5 7.93546 2.78878 10.2242 5.61212 10.2242H17.5404C20.3638 10.2242 22.6525 7.93546 22.6525 5.11212C22.6525 2.28878 20.3638 0 17.5404 0H5.61212Z" fill="white"/>
<path d="M17.5399 11.9287C14.7164 11.9287 12.4277 14.2174 12.4277 17.0408C12.4277 19.8643 14.7164 22.153 17.5399 22.153C20.3633 22.153 22.652 19.8643 22.652 17.0408C22.652 14.2174 20.3633 11.9287 17.5399 11.9287Z" fill="white"/>
<path d="M0.5 17.0408C0.5 14.2174 2.78878 11.9287 5.61212 11.9287H10.7242V22.153H5.61212C2.78878 22.153 0.5 19.8643 0.5 17.0408Z" fill="white"/>
<path d="M5.61212 23.8555C2.78878 23.8555 0.5 26.1442 0.5 28.9676C0.5 31.791 2.78878 34.0797 5.61212 34.0797C8.43555 34.0797 10.7242 31.791 10.7242 28.9676V23.8555H5.61212Z" fill="white"/>
</g>
<defs>
<clipPath id="clip0_671_498">
<rect width="23" height="35" fill="white" transform="translate(0.5)"/>
</clipPath>
</defs>
</svg>
