<svg width="28" height="27" viewBox="0 0 28 27" fill="none" xmlns="http://www.w3.org/2000/svg">
<g clip-path="url(#clip0_671_505)">
<path d="M1.37627 0.876271V0C1.13122 0 0.897367 0.102611 0.731442 0.282939C0.565515 0.463269 0.482679 0.704838 0.50303 0.949042L1.37627 0.876271ZM25.9119 0.876271L26.7852 0.949042C26.8055 0.704838 26.7226 0.463269 26.5566 0.282939C26.3908 0.102611 26.1569 0 25.9119 0V0.876271ZM24.1593 21.9068L24.4364 22.738C24.769 22.6273 25.0035 22.3288 25.0326 21.9795L24.1593 21.9068ZM13.6441 25.4119L13.367 26.2431C13.5468 26.3032 13.7413 26.3032 13.9212 26.2431L13.6441 25.4119ZM3.12882 21.9068L2.25558 21.9795C2.28469 22.3288 2.51918 22.6273 2.85172 22.738L3.12882 21.9068ZM8.38644 6.1339V5.25763H7.51017V6.1339H8.38644ZM8.38644 11.3915H7.51017V12.2678H8.38644V11.3915ZM18.9017 11.3915H19.778V10.5153H18.9017V11.3915ZM18.9017 16.6492L19.1788 17.4805L19.778 17.2807V16.6492H18.9017ZM13.6441 18.4017L13.367 19.2329L13.6441 19.3253L13.9212 19.2329L13.6441 18.4017ZM8.38644 16.6492H7.51017V17.2807L8.10935 17.4805L8.38644 16.6492ZM1.37627 1.75254H25.9119V0H1.37627V1.75254ZM25.0386 0.8035L23.286 21.8341L25.0326 21.9795L26.7852 0.949042L25.0386 0.8035ZM23.8823 21.0756L13.367 24.5806L13.9212 26.2431L24.4364 22.738L23.8823 21.0756ZM13.9212 24.5806L3.40591 21.0756L2.85172 22.738L13.367 26.2431L13.9212 24.5806ZM4.00206 21.8341L2.24952 0.8035L0.50303 0.949042L2.25558 21.9795L4.00206 21.8341ZM19.778 5.25763H8.38644V7.01017H19.778V5.25763ZM7.51017 6.1339V11.3915H9.26272V6.1339H7.51017ZM8.38644 12.2678H18.9017V10.5153H8.38644V12.2678ZM18.0254 11.3915V16.6492H19.778V11.3915H18.0254ZM18.6246 15.8179L13.367 17.5705L13.9212 19.2329L19.1788 17.4805L18.6246 15.8179ZM13.9212 17.5705L8.66354 15.8179L8.10935 17.4805L13.367 19.2329L13.9212 17.5705ZM9.26272 16.6492V14.0203H7.51017V16.6492H9.26272Z" fill="white"/>
</g>
<defs>
<clipPath id="clip0_671_505">
<rect width="27" height="27" fill="white" transform="translate(0.5)"/>
</clipPath>
</defs>
</svg>
