<svg width="31" height="30" viewBox="0 0 31 30" fill="none" xmlns="http://www.w3.org/2000/svg">
<g clip-path="url(#clip0_671_507)">
<path fill-rule="evenodd" clip-rule="evenodd" d="M0.5 10.7648C0.5 6.99677 0.5 5.11275 1.23331 3.67355C1.87834 2.4076 2.9076 1.37834 4.17355 0.733306C5.61275 0 7.49677 0 11.2648 0H19.4801C23.2481 0 25.1321 0 26.5713 0.733306C27.8372 1.37834 28.8665 2.4076 29.5115 3.67355C30.2449 5.11275 30.2449 6.99677 30.2449 10.7648V18.9801C30.2449 22.7481 30.2449 24.6321 29.5115 26.0713C28.8665 27.3372 27.8372 28.3665 26.5713 29.0115C25.1321 29.7449 23.2481 29.7449 19.4801 29.7449H11.2648C7.49677 29.7449 5.61275 29.7449 4.17355 29.0115C2.9076 28.3665 1.87834 27.3372 1.23331 26.0713C0.5 24.6321 0.5 22.7481 0.5 18.9801V10.7648ZM14.9165 18.6935H10.3072L9.36941 21.6814C9.34338 21.7924 9.24119 21.8711 9.12996 21.8655H6.79535C6.66221 21.8655 6.61566 21.7905 6.65568 21.6404L10.6464 9.85232C10.6864 9.72952 10.7263 9.58972 10.7661 9.43281C10.8184 9.15969 10.8451 8.88221 10.846 8.60399C10.8346 8.52177 10.9068 8.44915 10.9856 8.46067H14.1583C14.2513 8.46067 14.3044 8.49479 14.3179 8.56299L18.8475 21.6609C18.8873 21.7974 18.8475 21.8656 18.7278 21.8655H16.1337C16.0428 21.8759 15.9559 21.8136 15.9342 21.7223L14.9165 18.6935ZM11.0256 16.1148H14.1783C13.9833 15.4484 13.7789 14.7854 13.5744 14.1224C13.2359 13.0243 12.8974 11.9265 12.6019 10.8142C12.3098 11.8353 12.0025 12.854 11.6981 13.8632C11.4698 14.62 11.243 15.3717 11.0256 16.1148ZM20.9449 10.525C21.1341 10.6026 21.337 10.6384 21.5405 10.63C21.7517 10.6403 21.9627 10.6056 22.1602 10.5281C22.3575 10.4506 22.5373 10.332 22.6878 10.1798C22.8319 10.0247 22.9441 9.84155 23.0178 9.6412C23.0915 9.44084 23.1252 9.22721 23.1168 9.01326C23.1248 8.80568 23.0928 8.59843 23.0226 8.40354C22.9524 8.20864 22.8455 8.02985 22.7078 7.87741C22.4351 7.58408 22.0593 7.43741 21.5803 7.43741C21.3766 7.43203 21.1738 7.46814 20.9837 7.54367C20.7936 7.61919 20.62 7.73263 20.473 7.87741C20.3245 8.02371 20.2077 8.20049 20.1303 8.39621C20.0529 8.59195 20.0167 8.80218 20.0239 9.01326C20.0154 9.22647 20.0481 9.43925 20.12 9.63939C20.1919 9.83964 20.3017 10.0232 20.443 10.1798C20.5847 10.3298 20.7558 10.4475 20.9449 10.525ZM20.1636 11.8784V21.6609C20.1636 21.7974 20.2235 21.8656 20.3433 21.8656H22.7777C22.884 21.8657 22.9372 21.7975 22.9372 21.6609V11.8784C22.9371 11.7556 22.8839 11.6942 22.7777 11.6942H20.3233C20.2166 11.6942 20.1636 11.7556 20.1636 11.8784Z" fill="white"/>
</g>
<defs>
<clipPath id="clip0_671_507">
<rect width="30" height="30" fill="white" transform="translate(0.5)"/>
</clipPath>
</defs>
</svg>
