<svg width="31" height="30" viewBox="0 0 31 30" fill="none" xmlns="http://www.w3.org/2000/svg">
<g clip-path="url(#clip0_671_509)">
<path fill-rule="evenodd" clip-rule="evenodd" d="M27.5484 0H3.19643C1.70727 0 0.5 1.20727 0.5 2.69643V27.0484C0.5 28.5376 1.70727 29.7449 3.19643 29.7449H27.5484C29.0376 29.7449 30.2449 28.5376 30.2449 27.0484V2.69643C30.2449 1.20727 29.0376 0 27.5484 0ZM10.4408 9.35858C11.4295 9.35858 12.2578 8.58354 12.2578 7.56782C12.2578 6.55277 11.4295 5.77794 10.4408 5.77794C9.45196 5.77794 8.62385 6.55277 8.62385 7.56782C8.62385 8.58354 9.45196 9.35858 10.4408 9.35858ZM6.67307 18.9467C6.56638 19.401 6.51274 19.8915 6.51274 20.2917C6.51274 21.8686 7.3678 22.9154 9.18494 22.9154C10.692 22.9154 11.9137 22.0203 12.7933 20.5753L12.2562 22.731H15.2487L16.959 15.8712C17.3865 14.1343 18.2149 13.2329 19.4709 13.2329C20.4596 13.2329 21.0742 13.8477 21.0742 14.8627C21.0742 15.1569 21.0474 15.4772 20.9406 15.8247L20.0586 18.9778C19.925 19.4321 19.8718 19.8867 19.8718 20.3138C19.8718 21.8108 20.7534 22.9057 22.5972 22.9057C24.1737 22.9057 25.4296 21.8908 26.1244 19.459L24.9488 19.0051C24.3608 20.6343 23.8531 20.9288 23.4523 20.9288C23.0514 20.9288 22.8376 20.6618 22.8376 20.1276C22.8376 19.8871 22.8912 19.6202 22.9712 19.2989L23.8265 16.2269C24.0401 15.5056 24.1205 14.866 24.1205 14.2783C24.1205 11.9803 22.7308 10.7811 21.0474 10.7811C19.4709 10.7811 17.8675 12.2031 17.0661 13.6996L17.6538 11.0134H13.0846L12.4431 13.3794H14.5809L13.2646 18.6499C12.2307 20.9479 10.3318 20.9852 10.0935 20.9318C9.7022 20.8436 9.45197 20.695 9.45197 20.1865C9.45197 19.8931 9.50538 19.4717 9.639 18.9636L11.6433 11.0134H6.56638L5.92494 13.3794H8.03582L6.67307 18.9467Z" fill="white"/>
</g>
<defs>
<clipPath id="clip0_671_509">
<rect width="30" height="30" fill="white" transform="translate(0.5)"/>
</clipPath>
</defs>
</svg>
