<svg width="27" height="35" viewBox="0 0 27 35" fill="none" xmlns="http://www.w3.org/2000/svg">
<g clip-path="url(#clip0_671_511)">
<path d="M9.06348 14.056C8.74371 13.3489 8.60036 12.5243 8.84467 11.7751C9.08891 11.0092 9.63602 10.3948 10.1831 9.82239C11.7063 8.29886 13.5834 7.17949 15.0731 5.63093C15.8978 4.78076 16.5795 3.76234 16.8151 2.59232C17.0088 1.7339 16.9163 0.850178 16.7396 0C17.5307 0.900622 17.7917 2.18837 17.5643 3.34993C17.3203 4.65444 16.5963 5.80749 15.7463 6.80061C15.0646 7.60035 14.2817 8.30731 13.4654 8.96396C12.5144 9.72989 11.5802 10.5546 10.9827 11.632C10.4775 12.5072 10.3596 13.5846 10.7048 14.5357C11.2688 16.1685 12.5817 17.3805 13.2972 18.9207C12.5058 18.2221 11.7317 17.4983 11.0076 16.7325C10.2504 15.9244 9.53486 15.0661 9.06348 14.056ZM13.356 12.7765C13.2129 14.1149 13.9113 15.3773 14.7448 16.3706C15.1486 16.8166 15.4937 17.3637 15.5104 17.9866C15.5274 18.8195 15.0563 19.5942 14.4499 20.141C14.5932 20.1244 14.6941 19.998 14.812 19.9307C15.721 19.35 16.5961 18.6177 17.0422 17.6163C17.3368 16.9345 17.2696 16.1264 16.8825 15.495C16.4278 14.7544 15.8304 14.0979 15.477 13.29C15.2831 12.8355 15.2158 12.3053 15.3758 11.8255C15.5864 11.1775 16.0408 10.6472 16.5206 10.1843C17.8419 8.93035 19.441 8.03785 20.9729 7.06169C19.0371 7.61712 17.1266 8.38311 15.4937 9.5868C14.4584 10.3611 13.4991 11.4384 13.356 12.7765ZM22.5555 19.106C23.473 19.1566 24.3733 19.8298 24.5418 20.7557C24.7017 21.5553 24.3147 22.3464 23.8179 22.9523C23.0014 23.9286 21.8987 24.6273 20.7881 25.2249C20.6784 25.2919 20.5859 25.3762 20.5017 25.4689C21.9663 25.0985 23.4306 24.5433 24.6175 23.5921C25.2737 23.0449 25.8545 22.3209 25.9809 21.454C26.0988 20.705 25.7875 19.9307 25.2319 19.4341C24.5584 18.8195 23.6076 18.5924 22.7152 18.7103C22.2018 18.7776 21.638 18.887 21.2845 19.3163C21.7055 19.2324 22.1176 19.0639 22.5555 19.106ZM4.28293 21.5129C5.38533 21.8075 6.52167 21.8918 7.6495 21.9676C8.65946 22.0349 9.66962 22.0518 10.6881 22.0433C13.314 22.0014 15.9567 21.8245 18.5322 21.2522C18.7761 21.1934 19.0456 21.1513 19.2647 20.9998C19.6939 20.7219 20.1649 20.503 20.628 20.2842C18.5322 20.6209 16.428 20.9073 14.3071 21.0419C12.1609 21.1765 9.99765 21.2607 7.84316 21.1177C7.22877 21.0588 6.59741 21.025 6.02514 20.7892C5.89031 20.7303 5.7051 20.6127 5.77238 20.4357C5.89876 20.2085 6.15125 20.0992 6.37007 19.9813C7.29605 19.5436 8.30594 19.2996 9.29075 19.0135C7.59885 18.9881 5.91546 19.4172 4.36712 20.0823C4.02192 20.2507 3.6348 20.3853 3.35715 20.6715C3.24748 20.7891 3.24748 20.9915 3.37386 21.0922C3.62641 21.3195 3.96289 21.4205 4.28293 21.5129ZM17.918 23.8277C16.445 24.0887 14.9634 24.333 13.4736 24.4085C11.8408 24.5179 10.208 24.4252 8.59211 24.257C8.28079 24.2148 7.96927 24.1645 7.69162 24.0214C7.54854 23.9372 7.40553 23.8026 7.41398 23.6256C7.43068 23.3479 7.6662 23.1545 7.83471 22.9524C7.31302 23.1376 6.79107 23.331 6.35344 23.6764C6.16802 23.8195 5.98302 24.0466 6.03339 24.2991C6.10946 24.5936 6.39556 24.7704 6.64805 24.905C7.27069 25.225 7.96934 25.3679 8.65128 25.4942C10.3763 25.7721 12.1355 25.7806 13.8693 25.6624C15.7045 25.5194 17.5307 25.2165 19.3066 24.6946C18.8016 24.4675 18.3218 24.2063 17.918 23.8277ZM8.66791 26.7401C8.1966 26.8747 7.71678 27.0348 7.32972 27.3458C7.13579 27.4973 6.98453 27.7586 7.07723 28.0026C7.19509 28.3139 7.48971 28.4994 7.76715 28.6588C8.49122 29.0547 9.30752 29.2396 10.107 29.3829C11.9169 29.6689 13.7768 29.6269 15.578 29.3072C16.6468 29.1051 17.7158 28.8189 18.7088 28.373C18.0608 28.1036 17.4297 27.8005 16.8238 27.4471C15.7717 27.6322 14.7109 27.826 13.6336 27.8933C12.2114 28.0027 10.772 27.8848 9.34958 27.7081C9.01284 27.6323 8.59211 27.5987 8.36484 27.304C8.24725 27.0597 8.51644 26.883 8.66791 26.7401ZM20.1819 32.1518C21.3601 31.9081 22.5471 31.6298 23.6243 31.083C23.9608 30.8891 24.3733 30.6787 24.4829 30.2749C24.5418 29.8878 24.1377 29.6857 23.8516 29.5257C24.0283 29.7281 24.1461 30.0225 23.9692 30.258C23.6746 30.6538 23.1699 30.8052 22.7237 30.9567C21.3267 31.3523 19.8788 31.5122 18.4397 31.6722C14.6269 32.0172 10.7888 32.1015 6.97628 31.7816C5.69692 31.6468 4.39207 31.5038 3.17174 31.0494C2.97835 30.9651 2.68373 30.8809 2.68373 30.6199C2.75926 30.3931 2.97835 30.2664 3.17174 30.157C4.04707 29.7111 5.02343 29.4668 5.99972 29.408C5.71382 29.2396 5.37708 29.2229 5.04886 29.2313C4.23228 29.2565 3.43275 29.4668 2.65858 29.7281C1.99361 29.9718 1.31187 30.2413 0.781465 30.7296C0.571102 30.9146 0.37771 31.268 0.596255 31.5207C0.933 31.8827 1.45495 31.9751 1.91754 32.0845C4.50993 32.5307 7.13579 32.7829 9.76213 32.8756C13.2466 32.9769 16.7563 32.8253 20.1819 32.1518ZM23.6328 32.6065C22.0503 33.1114 20.4092 33.3891 18.7762 33.6164C15.9567 33.9699 13.1118 34.0793 10.2754 33.9953C8.55005 33.928 6.82474 33.8102 5.12439 33.5237C5.51996 33.7931 6.00824 33.8772 6.46284 34.0035C8.37356 34.4076 10.3344 34.4834 12.2788 34.5422C15.1316 34.5928 17.985 34.4834 20.7963 34.0372C22.1263 33.8019 23.4644 33.5155 24.6593 32.8926C25.2825 32.5644 25.9138 32.0592 26.0228 31.3271C25.3917 32.0003 24.4829 32.3118 23.6328 32.6065Z" fill="white"/>
</g>
<defs>
<clipPath id="clip0_671_511">
<rect width="26" height="35" fill="white" transform="translate(0.5)"/>
</clipPath>
</defs>
</svg>
