<svg width="32" height="30" viewBox="0 0 32 30" fill="none" xmlns="http://www.w3.org/2000/svg">
<g clip-path="url(#clip0_671_513)">
<path d="M30.7516 21.5224C30.7516 21.5224 26.896 31.9197 13.6224 29.4992C13.4135 29.4603 13.2132 29.3877 13.0103 29.3264C12.9629 29.3125 12.915 29.2973 12.8675 29.2837C12.6682 29.2217 12.471 29.1582 12.2749 29.0898C12.2524 29.082 12.231 29.0746 12.2083 29.0666C12.0297 29.0038 11.852 28.9371 11.6767 28.8698C11.6308 28.8519 11.5851 28.8345 11.5394 28.8158C11.3505 28.7411 11.1626 28.6631 10.9766 28.5817C10.9424 28.5666 10.9093 28.5514 10.8745 28.536C10.7117 28.4637 10.551 28.3887 10.3916 28.3125C10.3503 28.2915 10.3087 28.2721 10.267 28.2524C10.2443 28.2411 10.2198 28.2297 10.1966 28.2181C10.0937 28.1667 9.99325 28.1133 9.89188 28.0602C9.81368 28.0198 9.73421 27.9805 9.6565 27.9388C9.51296 27.8606 9.37143 27.7812 9.23063 27.6999C9.17839 27.6702 9.12567 27.6414 9.07393 27.6114C8.88271 27.4989 8.69349 27.3821 8.50707 27.2639C8.45435 27.2301 8.40218 27.1944 8.35018 27.1595C8.22861 27.0808 8.10698 27.002 7.98789 26.9198C7.97527 26.9112 7.9632 26.9022 7.95082 26.8933C7.90466 26.862 7.86079 26.83 7.81487 26.7967C7.68923 26.7094 7.56487 26.6201 7.44178 26.5293C7.38226 26.4844 7.32293 26.4393 7.26391 26.3941C7.1524 26.309 7.04144 26.2219 6.9314 26.1342C6.87668 26.0903 6.82117 26.0469 6.76645 26.0025C6.63225 25.892 6.49849 25.7795 6.36757 25.6659C6.34282 25.6443 6.31661 25.6231 6.29137 25.6004C6.28883 25.5993 6.28707 25.5973 6.28428 25.595C6.13571 25.4648 5.98987 25.3314 5.8453 25.1952C5.80168 25.1553 5.75824 25.1127 5.71438 25.0708C5.6064 24.9671 5.49944 24.8626 5.39425 24.7567C5.35057 24.7138 5.30744 24.6704 5.26558 24.627C5.12963 24.4872 4.99537 24.3473 4.86421 24.2041C4.85942 24.1977 4.85463 24.1938 4.84887 24.1875C4.84656 24.185 4.84328 24.1817 4.84104 24.1789C4.70685 24.0311 4.57514 23.8799 4.44623 23.7283C4.41013 23.6857 4.37385 23.6421 4.33824 23.5989C4.24215 23.4831 4.14751 23.3676 4.05469 23.2505C4.01611 23.2018 3.97752 23.1527 3.93943 23.1037C3.83526 22.9692 3.73231 22.8338 3.63264 22.696C3.61396 22.6703 3.59406 22.645 3.5761 22.6198C3.57228 22.6156 3.56906 22.6109 3.56651 22.6067C3.45101 22.447 3.3395 22.2843 3.23 22.1213C3.19597 22.0713 3.16394 22.0199 3.13112 21.9684C3.05189 21.8478 2.97418 21.7272 2.89901 21.6051C2.8597 21.5426 2.82233 21.4798 2.78447 21.4169C2.7161 21.3029 2.64925 21.1888 2.5844 21.0738C2.54733 21.0087 2.51075 20.9451 2.4749 20.8783C2.45494 20.843 2.43328 20.8066 2.41387 20.7696C2.37977 20.7079 2.34902 20.6437 2.31571 20.5808C2.26427 20.4822 2.21203 20.3831 2.16235 20.2827C0.0659237 16.091 -0.27617 10.9587 2.46859 7.01368L4.61094 4.29652C2.19383 8.96821 3.28017 14.6569 6.30399 18.7811C6.41319 18.9312 6.525 19.0793 6.63923 19.2273C6.6746 19.272 6.71009 19.3169 6.74546 19.3598C6.84052 19.4809 6.93765 19.6005 7.0358 19.7188C7.07117 19.7604 7.10569 19.8013 7.14179 19.8442C7.27301 19.9991 7.4072 20.153 7.54497 20.303C7.55152 20.3103 7.55783 20.3169 7.56414 20.324C7.69433 20.466 7.827 20.6062 7.96198 20.7446C8.00384 20.7869 8.04649 20.8288 8.08914 20.8712C8.19512 20.9794 8.30335 21.0844 8.41334 21.1888C8.45495 21.2302 8.49681 21.2701 8.54001 21.3112C8.68858 21.4494 8.83842 21.5869 8.99106 21.7212C9.00695 21.7351 9.02333 21.7479 9.03795 21.7607C9.17924 21.8836 9.32229 22.0032 9.4671 22.1223C9.51757 22.1634 9.56902 22.2045 9.62046 22.2454C9.73421 22.3369 9.84929 22.426 9.9651 22.5145C10.0204 22.557 10.0771 22.6001 10.1344 22.6424C10.2603 22.7358 10.3875 22.8276 10.5159 22.9185C10.5595 22.9479 10.6019 22.98 10.6461 23.0098C10.7788 23.1016 10.914 23.1909 11.0497 23.2782C11.1007 23.3121 11.1512 23.3474 11.2026 23.3802C11.3898 23.4987 11.5791 23.6153 11.7703 23.7278C11.8195 23.7561 11.8687 23.7825 11.9171 23.8098C12.0614 23.8933 12.206 23.9755 12.3533 24.0542C12.433 24.0986 12.515 24.1387 12.5957 24.1814C12.7163 24.2435 12.8369 24.3065 12.959 24.3661C13.0051 24.3888 13.05 24.41 13.0952 24.4314C13.2509 24.5063 13.407 24.5785 13.5649 24.6501C13.6023 24.6663 13.6386 24.6832 13.6762 24.6993C13.8601 24.7798 14.046 24.857 14.2335 24.9309C14.2816 24.95 14.3299 24.9685 14.3783 24.9877C14.5488 25.0538 14.7206 25.1179 14.8944 25.1792C14.9214 25.1887 14.9484 25.1986 14.9746 25.2082C15.1684 25.2748 15.3634 25.3383 15.5599 25.3984C15.6101 25.4141 15.6603 25.4292 15.7118 25.4443C15.9131 25.5038 16.1131 25.5682 16.3195 25.6149C21.7657 26.8544 27.5134 25.7413 30.7516 21.5224ZM11.5375 14.857C11.8352 15.2831 12.1647 15.7904 12.5595 16.1328C12.7023 16.2904 12.8521 16.444 13.0048 16.5952C13.0431 16.6345 13.0827 16.6723 13.1223 16.7109C13.2702 16.8547 13.4215 16.9963 13.577 17.1337C13.5835 17.1385 13.5893 17.1451 13.5956 17.1497C13.5974 17.1517 13.5989 17.1522 13.6002 17.1542C13.7728 17.3051 13.9509 17.4507 14.1315 17.5936C14.1717 17.6245 14.2115 17.6565 14.2521 17.6878C14.4335 17.8268 14.6185 17.9635 14.8082 18.0937C14.814 18.0977 14.8185 18.1018 14.8243 18.1058C14.9078 18.1638 14.9931 18.2178 15.0776 18.2733C15.1185 18.2996 15.1571 18.3278 15.1979 18.3525C15.3336 18.4396 15.4706 18.5241 15.6101 18.6053C15.6298 18.6174 15.649 18.6275 15.6684 18.6389C15.7882 18.708 15.9106 18.7764 16.0327 18.8425C16.075 18.8662 16.1185 18.8873 16.1619 18.91C16.2461 18.954 16.3309 18.9991 16.4167 19.0417C16.4295 19.0478 16.4429 19.0538 16.4553 19.0592C16.6301 19.1452 16.8064 19.2284 16.9869 19.3066C17.0252 19.3238 17.0651 19.3389 17.1042 19.3551C17.2483 19.4161 17.3936 19.4759 17.5396 19.5319C17.6016 19.5554 17.6645 19.5778 17.7261 19.6003C17.859 19.6497 17.992 19.6947 18.1262 19.7396C18.187 19.7589 18.2465 19.7789 18.3073 19.7976C18.498 19.8566 18.6867 19.9318 18.8857 19.9646C29.1342 21.6627 31.5001 13.772 31.5001 13.772C29.3671 16.8436 25.2368 18.3092 20.8292 17.1653C20.6337 17.1138 20.4408 17.0576 20.2493 16.9973C20.1902 16.9796 20.1327 16.9605 20.0744 16.941C19.9382 16.8968 19.8026 16.8499 19.6683 16.801C19.6069 16.7785 19.5454 16.7561 19.4851 16.7329C19.338 16.6763 19.1924 16.6178 19.0484 16.5568C19.0088 16.5396 18.9692 16.5245 18.9306 16.5068C18.7497 16.428 18.5716 16.3453 18.396 16.2585C18.3054 16.2142 18.2168 16.1675 18.1275 16.1217C18.076 16.0952 18.0244 16.0686 17.9729 16.0421C17.8589 15.9802 17.7454 15.9159 17.6335 15.8508C17.607 15.8355 17.5793 15.821 17.5523 15.805C17.4138 15.7238 17.2771 15.6401 17.1416 15.5542C17.0999 15.5276 17.0596 15.4987 17.018 15.4713C16.9284 15.4134 16.8394 15.3548 16.7515 15.2953C16.5629 15.1651 16.3792 15.0284 16.1978 14.8901C16.1559 14.8572 16.1143 14.8251 16.0729 14.7921C14.1439 13.2687 12.6149 11.1872 11.8873 8.82685C11.1256 6.37887 11.2899 3.63102 12.6101 1.40101L10.9882 3.69041C9.00349 6.54686 9.11124 10.3705 10.6594 13.3915C10.9194 13.898 11.2113 14.3891 11.5375 14.857ZM22.3396 11.3231C22.4241 11.3546 22.5084 11.3826 22.5939 11.4115C22.6312 11.423 22.6686 11.4358 22.7062 11.4469C22.8268 11.4849 22.9466 11.529 23.0713 11.5524C28.7304 12.6458 30.265 8.64838 30.6737 8.0601C29.329 9.99594 27.0698 10.4606 24.2971 9.78792C24.0784 9.73447 23.8377 9.65537 23.6262 9.58069C23.3555 9.48417 23.0894 9.37418 22.83 9.24969C22.3374 9.01316 21.8686 8.72621 21.4332 8.39765C18.9525 6.51525 17.4116 2.92433 19.0303 0L18.1543 1.20731C16.9842 2.92936 16.8695 5.06795 17.681 6.97C18.5373 8.98859 20.2919 10.5724 22.3396 11.3231Z" fill="white"/>
</g>
<defs>
<clipPath id="clip0_671_513">
<rect width="31" height="30" fill="white" transform="translate(0.5)"/>
</clipPath>
</defs>
</svg>
