<svg width="178" height="182" viewBox="0 0 178 182" fill="none" xmlns="http://www.w3.org/2000/svg">
<path d="M177.299 41.1633C177.269 41.078 177.233 40.9949 177.192 40.9144C177.146 40.7558 177.086 40.6012 177.014 40.4523C176.961 40.3652 176.902 40.2821 176.837 40.2035C176.76 40.0919 176.677 39.9851 176.588 39.8836C176.517 39.8125 176.41 39.7414 176.303 39.6703C176.202 39.5805 176.095 39.4974 175.984 39.4215L141.752 19.764C141.32 19.5145 140.829 19.3831 140.33 19.3831C139.831 19.3831 139.34 19.5145 138.908 19.764L104.676 39.457C104.564 39.5323 104.457 39.6155 104.357 39.7058C104.257 39.7707 104.162 39.8419 104.072 39.9191C103.982 40.0199 103.899 40.1268 103.823 40.239C103.752 40.3101 103.681 40.4168 103.646 40.4879C103.575 40.6374 103.516 40.7919 103.468 40.95C103.432 41.0211 103.397 41.0922 103.361 41.1988C103.293 41.4419 103.257 41.6929 103.255 41.9453V79.3406L74.746 95.7633V22.5367C74.7446 22.2842 74.7087 22.033 74.6394 21.7902C74.6038 21.7191 74.5683 21.6125 74.5327 21.5414C74.4846 21.3948 74.4252 21.2522 74.355 21.1148C74.3194 21.0082 74.2128 20.9371 74.1773 20.866C74.1009 20.7544 74.0178 20.6476 73.9284 20.5461C73.8375 20.47 73.7425 20.3988 73.6441 20.3328C73.5423 20.2437 73.4355 20.1606 73.3241 20.084L39.0925 0.391C38.6602 0.141409 38.1698 0.0100098 37.6706 0.0100098C37.1714 0.0100098 36.6811 0.141409 36.2487 0.391L2.01711 20.084C1.90338 20.1574 1.79633 20.2406 1.69718 20.3328C1.59793 20.3977 1.50294 20.469 1.41281 20.5461C1.32254 20.6468 1.2394 20.7537 1.16398 20.866C1.09289 20.9726 1.02179 21.0437 0.9507 21.1148C0.879837 21.2519 0.820391 21.3946 0.772966 21.5414C0.732586 21.6222 0.696978 21.7053 0.666325 21.7902C0.598607 22.0334 0.56276 22.2843 0.559684 22.5367V139.735C0.555177 140.238 0.684437 140.734 0.934254 141.171C1.18407 141.608 1.54549 141.971 1.98156 142.223L70.4093 181.609C70.5584 181.68 70.7129 181.74 70.8714 181.787C70.9425 181.822 71.0136 181.858 71.0847 181.893C71.562 182.022 72.0648 182.022 72.5421 181.893C72.6132 181.858 72.6843 181.822 72.7554 181.822C72.9272 181.766 73.0938 181.695 73.253 181.609L141.752 142.223C142.188 141.971 142.549 141.608 142.799 141.171C143.049 140.734 143.178 140.238 143.174 139.735V102.339L175.948 83.464C176.384 83.2123 176.745 82.8493 176.995 82.4121C177.245 81.9749 177.374 81.4793 177.37 80.9758V41.9097C177.377 41.6589 177.353 41.4082 177.299 41.1633ZM37.6706 6.14959L66.1792 22.5722L37.6706 38.9949L9.16203 22.5367L37.6706 6.14959ZM69.0585 27.4777V99.0336L52.5292 108.56L40.5499 115.456V43.9004L57.0792 34.3738L69.0585 27.4777ZM69.0585 174.215L6.31828 138.1V27.4777L18.2976 34.3738L34.8269 43.9004V120.397C34.8317 120.505 34.8436 120.611 34.8624 120.717C34.8753 120.861 34.899 121.004 34.9335 121.144C34.9719 121.254 35.0195 121.361 35.0757 121.464C35.113 121.586 35.1606 121.705 35.2179 121.819C35.2833 121.918 35.3546 122.013 35.4312 122.103C35.5074 122.204 35.5905 122.299 35.68 122.388C35.7511 122.459 35.8577 122.53 35.9644 122.601C36.0656 122.691 36.1724 122.774 36.2843 122.85L69.0585 141.405V174.215ZM71.9023 136.464L43.4292 120.362L73.3241 103.157L106.134 84.2816L134.607 100.669L113.705 112.612L71.9023 136.464ZM137.486 138.1L74.746 174.215V141.405L121.206 114.887L137.486 105.574V138.1ZM137.486 95.7633L125.507 88.8672L108.978 79.3406V46.8508L120.957 53.7469L137.486 63.2734V95.7633ZM140.33 58.3324L111.821 41.9097L140.33 25.4871L168.839 41.9097L140.33 58.3324ZM143.174 95.7633V63.2734L159.739 53.7469L171.718 46.8508V79.3406L143.174 95.7633Z" fill="white"/>
</svg>
