<svg width="30" height="32" viewBox="0 0 30 32" fill="none" xmlns="http://www.w3.org/2000/svg">
<g clip-path="url(#clip0_671_519)">
<path d="M28.8786 9.22858V22.7621C28.8786 23.6404 28.4061 24.4581 27.6467 24.9002L15.9208 31.6707C15.5458 31.8882 15.1204 32 14.686 32C14.2578 32 13.8312 31.8882 13.4561 31.6707L9.54091 29.3543C8.9569 29.0282 9.24189 28.9122 9.43496 28.8453C10.2149 28.5746 10.3726 28.5122 11.2052 28.0398C11.292 27.9901 11.4066 28.0095 11.4962 28.0612L14.504 29.8472C14.613 29.9086 14.767 29.9086 14.8673 29.8472L26.5941 23.0786C26.7033 23.0162 26.7733 22.8918 26.7733 22.7621V9.22858C26.7733 9.096 26.7033 8.9722 26.5913 8.90526L14.8693 2.14267C14.7612 2.07942 14.617 2.07942 14.5081 2.14267L2.78872 8.90714C2.67487 8.97226 2.60305 9.09995 2.60305 9.22858V22.7621C2.60305 22.8916 2.67481 23.0131 2.78803 23.0746L6.0005 24.9316C7.74321 25.8022 8.81067 24.776 8.81067 23.7445V10.3833C8.81067 10.1944 8.96241 10.0454 9.15128 10.0454H10.6384C10.8243 10.0454 10.9783 10.1943 10.9783 10.3833V23.7446C10.9783 26.0707 9.71112 27.4051 7.50581 27.4051C6.82849 27.4051 6.29426 27.4051 4.80441 26.6716L1.72978 24.9002C0.969981 24.4621 0.5 23.6404 0.5 22.7621V9.22858C0.5 8.34917 0.969981 7.52838 1.72978 7.09096L13.4562 0.314724C14.1983 -0.104908 15.1851 -0.104908 15.9208 0.314724L27.6467 7.09096C28.4061 7.5302 28.8786 8.34917 28.8786 9.22858ZM18.7705 21.4711C15.2712 21.4711 14.5012 20.5914 14.2433 18.8513C14.2134 18.6655 14.0543 18.5272 13.8636 18.5272H12.1536C11.9419 18.5272 11.7719 18.6964 11.7719 18.9094C11.7719 21.1363 12.9839 23.7922 18.7705 23.7922C22.9603 23.7922 25.3627 22.1427 25.3627 19.2619C25.3627 16.4048 23.4322 15.6448 19.3692 15.1069C15.2625 14.5634 14.8452 14.2836 14.8452 13.3216C14.8452 12.5288 15.1985 11.4692 18.2403 11.4692C20.9565 11.4692 21.9579 12.0547 22.3696 13.8849C22.4059 14.0574 22.5627 14.1833 22.7405 14.1833H24.4569C24.5634 14.1833 24.6645 14.1376 24.7369 14.0616C24.8094 13.9815 24.8479 13.8771 24.8377 13.7676C24.5722 10.6129 22.4761 9.14335 18.2402 9.14335C14.4698 9.14335 12.2211 10.7348 12.2211 13.4018C12.2211 16.296 14.4585 17.0965 18.0763 17.4536C22.4059 17.8783 22.7419 18.5108 22.7419 19.3628C22.7419 20.8406 21.5562 21.4711 18.7705 21.4711Z" fill="white"/>
</g>
<defs>
<clipPath id="clip0_671_519">
<rect width="29" height="32" fill="white" transform="translate(0.5)"/>
</clipPath>
</defs>
</svg>
