<svg width="47" height="20" viewBox="0 0 47 20" fill="none" xmlns="http://www.w3.org/2000/svg">
<g clip-path="url(#clip0_671_521)">
<path d="M46.4551 12.1059C46.152 13.3698 45.6753 14.4251 45.0249 15.2725C44.3744 16.1199 43.5667 16.7591 42.6019 17.1908C41.6369 17.622 40.4096 17.8378 38.9188 17.8378C37.1109 17.8378 35.6332 17.5748 34.487 17.0493C33.3403 16.5235 32.3513 15.6 31.519 14.2762C30.6869 12.9533 30.2707 11.2593 30.2707 9.19484C30.2707 6.44293 31.0029 4.32756 32.4668 2.84954C33.9306 1.37134 36.0024 0.631926 38.6808 0.631926C40.7764 0.631926 42.4237 1.05599 43.623 1.90313C44.8223 2.75071 45.7131 4.05237 46.2955 5.80728L41.7561 6.81722C41.5976 6.31059 41.431 5.93954 41.2569 5.70531C40.9692 5.31189 40.6173 5.00902 40.2014 4.79744C39.7848 4.58577 39.32 4.47931 38.8056 4.47931C37.6399 4.47931 36.7474 4.94802 36.1268 5.88518C35.6583 6.58048 35.4236 7.67262 35.4236 9.16106C35.4236 11.0052 35.7035 12.2692 36.2628 12.9534C36.8232 13.637 37.6101 13.9785 38.624 13.9785C39.6074 13.9785 40.3509 13.7028 40.8541 13.1502C41.3571 12.5983 41.722 11.7957 41.9491 10.7445L46.4551 12.1059ZM10.5325 5.5674C10.739 6.40016 10.8422 7.33795 10.8422 8.38041C10.8422 9.57201 10.702 10.6009 10.4211 11.4678C10.1401 12.3346 9.76046 13.0504 9.28339 13.6152C8.80632 14.181 8.24777 14.6006 7.60772 14.8749C6.96812 15.1488 6.29259 15.2862 5.58201 15.2862C4.72903 15.2862 3.98594 15.1323 3.35299 14.8236C2.71977 14.5158 2.19517 14.0708 1.77893 13.4885C1.36232 12.9063 1.05263 12.1972 0.849313 11.361C0.645996 10.5248 0.544922 9.58225 0.544922 8.53261C0.544922 7.35458 0.68391 6.3326 0.961527 5.46579C1.23869 4.59916 1.61649 3.88337 2.09365 3.31807C2.57072 2.75296 3.12784 2.33303 3.76411 2.05882C4.40039 1.78453 5.07439 1.64761 5.78497 1.64761C6.63795 1.64761 7.38104 1.8034 8.01435 2.1148C8.64721 2.42602 9.1737 2.87119 9.59327 3.45014C10.0131 4.02883 10.3262 4.73455 10.5325 5.5674ZM8.96364 8.51239C8.96364 7.73398 8.90461 7.02125 8.7862 6.37474C8.66734 5.7284 8.47606 5.17128 8.21192 4.70427C7.94814 4.23709 7.60772 3.87502 7.19156 3.61761C6.77496 3.36021 6.27246 3.23173 5.68327 3.23173C5.115 3.23173 4.62554 3.36884 4.21603 3.64304C3.80616 3.91733 3.46952 4.28964 3.20537 4.75998C2.94159 5.23076 2.74511 5.7824 2.61654 6.41544C2.48797 7.04839 2.42373 7.72033 2.42373 8.43117C2.42373 9.21668 2.48429 9.93255 2.60648 10.5793C2.72821 11.2256 2.91958 11.7808 3.1804 12.2446C3.44077 12.7082 3.77741 13.0686 4.19069 13.326C4.60352 13.5834 5.10117 13.7117 5.68327 13.7117C6.25189 13.7117 6.74279 13.5749 7.15571 13.3008C7.56891 13.0265 7.90896 12.6544 8.17643 12.1835C8.44398 11.7129 8.642 11.163 8.77048 10.5333C8.89904 9.90353 8.96364 9.23015 8.96364 8.51239ZM20.8114 9.82249C20.8114 10.6689 20.6944 11.4254 20.4614 12.0924C20.2275 12.7589 19.8957 13.3246 19.4657 13.7878C19.036 14.252 18.513 14.6071 17.8969 14.8542C17.2808 15.1014 16.587 15.2248 15.8151 15.2248C15.2125 15.2248 14.5968 15.1672 13.9669 15.0521C13.3373 14.937 12.7145 14.7546 12.0984 14.5037V0.753844H13.8652V4.70427L13.7842 6.59306C14.2916 5.90935 14.8352 5.4268 15.4143 5.14586C15.9927 4.86509 16.614 4.72458 17.2776 4.72458C17.8597 4.72458 18.3708 4.84623 18.8109 5.09015C19.251 5.33372 19.6197 5.67746 19.9179 6.12075C20.2161 6.56404 20.4395 7.09924 20.5882 7.72527C20.7368 8.35175 20.8114 9.05082 20.8114 9.82249ZM19.0035 9.90353C19.0035 9.36905 18.965 8.87797 18.887 8.43108C18.8093 7.9842 18.6855 7.60183 18.5164 7.28351C18.3471 6.96537 18.1304 6.7165 17.8663 6.537C17.6025 6.35785 17.2876 6.268 16.9222 6.268C16.6987 6.268 16.472 6.30349 16.2418 6.37465C16.0113 6.44562 15.7729 6.56404 15.5256 6.72998C15.2786 6.8961 15.0179 7.11595 14.7436 7.39015C14.4697 7.66445 14.1767 8.00459 13.8652 8.41087V13.3566C14.2104 13.4919 14.5627 13.5987 14.9214 13.6765C15.28 13.7541 15.6222 13.793 15.9469 13.793C16.3534 13.793 16.7409 13.7288 17.1096 13.6002C17.4783 13.4718 17.8038 13.2565 18.0848 12.9553C18.3657 12.6542 18.5891 12.2545 18.755 11.7568C18.9206 11.2593 19.0035 10.6416 19.0035 9.90353ZM21.1802 6.36953H26.177V14.9813C26.177 15.9291 25.9566 16.6469 25.5164 17.1341C25.0763 17.6216 24.4706 17.8657 23.6991 17.8657C23.4551 17.8657 23.2044 17.8504 22.9474 17.8197C22.6903 17.7893 22.4344 17.7438 22.1803 17.6827C21.9266 17.6216 21.6797 17.5473 21.4394 17.4591C21.1988 17.3713 20.9735 17.2731 20.7639 17.1649V18.8505C21.1499 19.0132 21.5814 19.1401 22.0589 19.2316C22.5361 19.3229 23.0251 19.3683 23.5261 19.3683C24.217 19.3683 24.838 19.2705 25.3898 19.0741C25.9416 18.8775 26.4067 18.5897 26.7859 18.2109C27.1648 17.8313 27.4566 17.3662 27.6595 16.8143C27.8624 16.2626 27.9641 15.6314 27.9641 14.9206V4.90732H21.1802V6.36953ZM27.8881 1.03802C27.7626 0.909902 27.6155 0.809727 27.4461 0.738571C27.2769 0.667594 27.0942 0.631836 26.8981 0.631836C26.7015 0.631836 26.5184 0.667504 26.3496 0.738571C26.18 0.809727 26.0328 0.909902 25.9076 1.03802C25.7824 1.16677 25.6842 1.316 25.6129 1.48508C25.5422 1.65435 25.5063 1.83386 25.5063 2.02325C25.5063 2.21982 25.5421 2.40086 25.6129 2.56671C25.6842 2.73256 25.7825 2.88 25.9076 3.00838C26.0328 3.13713 26.18 3.23686 26.3496 3.30783C26.5185 3.37917 26.7016 3.41448 26.8981 3.41448C27.0942 3.41448 27.2769 3.37917 27.4461 3.30783C27.6155 3.23686 27.7625 3.13713 27.8881 3.00838C28.0129 2.88 28.1116 2.73265 28.1821 2.56671C28.2535 2.40086 28.2889 2.21982 28.2889 2.02325C28.2889 1.83386 28.2535 1.65435 28.1821 1.48508C28.1116 1.31591 28.0129 1.16668 27.8881 1.03802Z" fill="white"/>
</g>
<defs>
<clipPath id="clip0_671_521">
<rect width="46" height="20" fill="white" transform="translate(0.5)"/>
</clipPath>
</defs>
</svg>
