<svg width="31" height="30" viewBox="0 0 31 30" fill="none" xmlns="http://www.w3.org/2000/svg">
<g clip-path="url(#clip0_671_523)">
<path d="M24.9424 0H5.3885C2.69982 0 0.5 2.19982 0.5 4.8885V24.4425C0.5 27.1311 2.69982 29.331 5.3885 29.331H24.9425C27.6311 29.331 29.831 27.1311 29.831 24.4425V4.8885C29.8309 2.19982 27.6311 0 24.9424 0ZM14.5529 14.9251C13.5349 15.9432 11.9349 16.4212 10.1273 16.4212C9.6494 16.4212 9.21311 16.4003 8.8806 16.3379V21.6155H6.34592V7.7984C7.26011 7.63223 8.5276 7.50745 10.2519 7.50745C12.1221 7.50745 13.4934 7.90224 14.3869 8.65032C15.218 9.33607 15.7582 10.4372 15.7582 11.7462C15.7581 13.076 15.3426 14.1771 14.5529 14.9251ZM19.8711 21.8235C18.6451 21.8235 17.544 21.5325 16.796 21.1169L17.2946 19.2677C17.8763 19.6209 18.9777 19.995 19.8919 19.995C21.0137 19.995 21.5126 19.5379 21.5126 18.8729C21.5126 18.1874 21.0971 17.834 19.8503 17.3978C17.8763 16.712 17.0454 15.6316 17.0662 14.4473C17.0662 12.6604 18.5413 11.2683 20.8892 11.2683C22.0113 11.2683 22.9878 11.5593 23.5694 11.8708L23.0708 13.6785C22.6344 13.4292 21.824 13.0967 20.9307 13.0967C20.0164 13.0967 19.5178 13.5331 19.5178 14.1563C19.5178 14.8006 19.9957 15.1123 21.284 15.5694C23.1123 16.2342 23.9643 17.1691 23.985 18.6653C23.985 20.4937 22.5514 21.8235 19.8711 21.8235ZM13.2024 11.85C13.2024 13.4915 12.0388 14.4265 10.1273 14.4265C9.6079 14.4265 9.19234 14.4057 8.8806 14.3227V9.58529C9.15084 9.52301 9.64946 9.46068 10.356 9.46068C12.1221 9.46068 13.2024 10.2918 13.2024 11.85Z" fill="white"/>
</g>
<defs>
<clipPath id="clip0_671_523">
<rect width="30" height="30" fill="white" transform="translate(0.5)"/>
</clipPath>
</defs>
</svg>
