<svg width="40" height="20" viewBox="0 0 40 20" fill="none" xmlns="http://www.w3.org/2000/svg">
<g clip-path="url(#clip0_671_525)">
<path d="M19.6902 0.306201C19.6342 0.306201 19.5686 0.306201 19.5047 0.306201C16.93 0.306201 14.4193 0.586057 12.0045 1.11699L12.2348 1.07381C9.92877 1.55836 7.88821 2.27479 5.98199 3.22151L6.13231 3.15434C4.51554 3.93314 3.14664 4.97581 2.02242 6.24076L2.01123 6.25355C1.09809 7.25144 0.528785 8.57716 0.5 10.034V10.0404C0.530384 11.5021 1.09809 12.8246 2.01282 13.8257L2.00963 13.8209C3.14504 15.0986 4.51394 16.1413 6.05395 16.8865L6.13071 16.9201C7.88661 17.798 9.92717 18.5161 12.0637 18.9702L12.2332 19.0006C14.4177 19.4884 16.9284 19.7682 19.5031 19.7682H19.6998H19.6902H19.8757C22.4503 19.7682 24.9611 19.4884 27.3758 18.9574L27.1455 19.0006C29.4516 18.5161 31.4921 17.7996 33.3983 16.8529L33.248 16.9201C34.8648 16.1413 36.2337 15.0986 37.3579 13.8337L37.3691 13.8209C38.2822 12.823 38.8515 11.4973 38.8803 10.0404V10.034C38.8515 8.57077 38.2822 7.24504 37.3659 6.24236L37.3691 6.24716C36.2337 4.96941 34.8648 3.92675 33.3248 3.18153L33.248 3.14794C31.4921 2.26999 29.4516 1.55196 27.3151 1.0978L27.1455 1.06741C24.9611 0.579661 22.4503 0.299805 19.8757 0.299805C19.8101 0.299805 19.7445 0.299805 19.679 0.299805H19.6886L19.6902 0.306201ZM14.7007 11.9226C14.4912 12.113 14.2529 12.2761 13.9939 12.404L13.9763 12.412C13.7508 12.5207 13.4837 12.6215 13.2055 12.6983L13.1719 12.7062C12.8968 12.8054 12.5786 12.8646 12.246 12.8646C12.2332 12.8646 12.2204 12.8646 12.2076 12.8646H9.05561L8.54388 16.0038H6.22986L8.27681 5.32923H12.7113C12.7401 5.32923 12.7753 5.32763 12.8105 5.32763C13.3862 5.32763 13.9395 5.42838 14.4512 5.61388L14.4177 5.60269C14.8894 5.7754 15.2908 6.04406 15.6139 6.38469L15.6155 6.38628C15.8953 6.7429 16.0952 7.17468 16.1816 7.64804L16.1848 7.66563C16.2247 7.89911 16.2487 8.16777 16.2487 8.44283C16.2487 8.75627 16.2183 9.06171 16.1608 9.35916L16.1656 9.32878C16.108 9.61503 16.0328 9.8645 15.9385 10.1044L15.9497 10.074C15.858 10.3096 15.7599 10.5319 15.6554 10.7409C15.5254 10.9498 15.3814 11.1593 15.2237 11.3693C15.0701 11.5756 14.9022 11.7563 14.7167 11.9179L14.7119 11.9211L14.7007 11.9226ZM21.3725 12.8646L22.276 8.35168C22.3144 8.18057 22.3368 7.98547 22.3368 7.78397C22.3368 7.74239 22.3352 7.70081 22.3336 7.65923V7.66563C22.332 7.49132 22.2648 7.333 22.1561 7.21306C22.0458 7.11711 21.9146 7.04355 21.7707 6.99877L21.7627 6.99717C21.5628 6.93321 21.3325 6.89802 21.0942 6.89802C21.0671 6.89802 21.0399 6.89802 21.0127 6.89962H21.0159H19.2152L18.0382 12.8646H15.7626L17.8095 2.50188H20.0852L19.5366 5.32763H21.5836C21.6188 5.32763 21.6588 5.32603 21.7003 5.32603C22.2297 5.32603 22.7446 5.3916 23.2371 5.51313L23.194 5.50354C23.5922 5.59149 23.9392 5.7786 24.219 6.03447L24.2174 6.03287C24.4669 6.22957 24.6444 6.50942 24.7068 6.82926L24.7084 6.83726C24.7308 6.97958 24.7436 7.1427 24.7436 7.30901C24.7436 7.58087 24.71 7.84474 24.6444 8.09581L24.6492 8.07342L23.7073 12.8614L21.3725 12.8646ZM34.0092 9.37196C33.9453 9.66141 33.8781 9.89649 33.7981 10.1284L33.8125 10.0788C33.7262 10.3331 33.6206 10.5538 33.4911 10.7584L33.4991 10.7457C33.3887 10.9935 33.2576 11.2062 33.1025 11.3981L33.1073 11.3917C32.9506 11.5868 32.7826 11.7595 32.6003 11.9179L32.5955 11.9226C32.3861 12.113 32.1478 12.2761 31.8887 12.404L31.8711 12.412C31.6456 12.5207 31.3786 12.6215 31.1003 12.6983L31.0667 12.7062C30.7917 12.8054 30.4734 12.8646 30.1408 12.8646C30.128 12.8646 30.1152 12.8646 30.1024 12.8646H26.9504L26.4019 15.9974H24.1263L26.1732 5.32283H30.5694C30.6046 5.32123 30.6445 5.32123 30.6861 5.32123C31.2698 5.32123 31.8311 5.42198 32.3509 5.60908L32.3157 5.59789C32.7747 5.7642 33.1617 6.03287 33.4639 6.37829L33.4671 6.38149C33.7709 6.73651 33.9868 7.17628 34.0716 7.65923L34.0748 7.67522C34.11 7.88472 34.1308 8.12459 34.1308 8.37087C34.1308 8.72429 34.0892 9.06651 34.0108 9.39594L34.0172 9.36556L34.0092 9.37196ZM29.6914 6.89802H28.1274L27.3071 11.2942H28.676H28.7591C29.1589 11.2942 29.5523 11.2574 29.9329 11.1886L29.8929 11.195C30.2192 11.1375 30.5102 11.0207 30.7661 10.856L30.7565 10.8608C30.974 10.6657 31.1563 10.4402 31.2986 10.1875L31.305 10.1747C31.4697 9.8741 31.5929 9.52388 31.6552 9.15447L31.6584 9.13528C31.708 8.92898 31.7352 8.6907 31.7352 8.44603C31.7352 8.32769 31.7288 8.21095 31.716 8.09741L31.7176 8.1118C31.6952 7.85913 31.6025 7.63045 31.4601 7.44174L31.4617 7.44494C31.2762 7.27223 31.0539 7.1379 30.8077 7.05634L30.7949 7.05314C30.4974 6.95399 30.1568 6.89802 29.8018 6.89802C29.765 6.89802 29.7282 6.89802 29.693 6.89962H29.6978L29.6914 6.89802ZM11.7966 6.89802H10.2326L9.40903 11.2942H10.7811H10.8643C11.2641 11.2942 11.6575 11.2574 12.0381 11.1886L11.9981 11.195C12.3243 11.1375 12.6154 11.0207 12.8713 10.856L12.8617 10.8608C13.0792 10.6657 13.2615 10.4402 13.4038 10.1875L13.4102 10.1747C13.5749 9.8741 13.698 9.52388 13.7604 9.15447L13.7636 9.13528C13.8132 8.92898 13.8404 8.6907 13.8404 8.44603C13.8404 8.32769 13.834 8.21095 13.8212 8.09741L13.8228 8.1118C13.8004 7.85913 13.7076 7.63045 13.5653 7.44174L13.5669 7.44494C13.3814 7.27223 13.1591 7.1379 12.9128 7.05634L12.9 7.05314C12.6026 6.95399 12.262 6.89802 11.907 6.89802C11.8702 6.89802 11.8334 6.89802 11.7982 6.89962H11.803L11.7966 6.89802Z" fill="white"/>
</g>
<defs>
<clipPath id="clip0_671_525">
<rect width="39" height="20" fill="white" transform="translate(0.5)"/>
</clipPath>
</defs>
</svg>
