<svg width="33" height="29" viewBox="0 0 33 29" fill="none" xmlns="http://www.w3.org/2000/svg">
<g clip-path="url(#clip0_676_479)">
<path d="M7.56296 10.5699L16.0514 28.3526L24.6199 10.5699H7.56296ZM16.0919 28.4357L16.0514 28.3619L16.041 28.3775L16.0919 28.4357ZM31.6839 10.5699H25.8291L16.0545 28.3578L16.0919 28.4357L31.6839 10.5699ZM24.8622 1.47528L25.9456 9.68715L31.6829 10.5709L24.8622 1.47528ZM0.5 10.5699L16.0379 28.3744L16.0483 28.3567L6.27264 10.5709L0.5 10.5699ZM7.32174 1.47528L0.5 10.5699L6.23729 9.68611L7.32174 1.47528ZM16.0919 0.5L7.32174 1.47528V9.12361L16.0919 0.5ZM16.0919 0.5L8.23151 9.59461H23.9534L16.0919 0.5ZM16.0919 0.5L24.8622 9.12361V1.47528L16.0919 0.5Z" fill="white"/>
</g>
<defs>
<clipPath id="clip0_676_479">
<rect width="32" height="28" fill="white" transform="translate(0.5 0.5)"/>
</clipPath>
</defs>
</svg>
