<svg width="29" height="25" viewBox="0 0 29 25" fill="none" xmlns="http://www.w3.org/2000/svg">
<g clip-path="url(#clip0_671_527)">
<path fill-rule="evenodd" clip-rule="evenodd" d="M17.1966 0C29.1086 8.16338 25.2563 17.1648 25.2563 17.1648C25.2563 17.1648 28.6439 21.0194 27.274 24.3905C27.274 24.3905 25.8769 22.0298 23.5341 22.0298C21.2752 22.0298 19.9487 24.3905 15.4039 24.3905C5.28459 24.3905 0.5 15.8706 0.5 15.8706C9.61661 21.915 15.8416 17.6345 15.8416 17.6345C11.7345 15.2315 2.99729 3.73955 2.99729 3.73955C10.6058 10.2673 13.8944 11.9888 13.8944 11.9888C11.9324 10.3531 6.42687 2.36071 6.42687 2.36071C10.8307 6.85542 19.5815 13.1261 19.5815 13.1261C22.0666 6.18611 17.1966 0 17.1966 0Z" fill="white"/>
</g>
<defs>
<clipPath id="clip0_671_527">
<rect width="28" height="25" fill="white" transform="translate(0.5)"/>
</clipPath>
</defs>
</svg>
