<svg width="37" height="21" viewBox="0 0 37 21" fill="none" xmlns="http://www.w3.org/2000/svg">
<g clip-path="url(#clip0_671_529)">
<path d="M31.0056 5.86859C30.4343 5.93401 29.9576 6.28218 29.7122 6.76704L29.7076 6.77639C29.3571 7.26008 29.0942 7.83257 28.954 8.45063L28.9481 8.48217C28.8839 8.78244 28.8477 9.12593 28.8477 9.47877C28.8477 9.49629 28.8477 9.51265 28.8477 9.53017V9.52784C28.8547 9.99868 28.9481 10.4462 29.1152 10.8562L29.1059 10.8317C29.3208 11.389 29.6083 11.6916 29.9518 11.7629C29.9891 11.7664 30.0335 11.7687 30.0779 11.7687C30.4892 11.7687 30.8584 11.5888 31.1108 11.3049L31.1119 11.3037C31.6762 10.7499 32.0665 10.0209 32.1973 9.20537L32.1996 9.18435C32.2616 8.86772 32.299 8.50086 32.3013 8.127V8.12466C32.2954 7.65382 32.2008 7.20634 32.0337 6.79625L32.0431 6.82079C31.8269 6.26349 31.5407 5.96205 31.196 5.89079C31.1388 5.8791 31.0734 5.87092 31.0056 5.86976V5.86859ZM22.0234 5.86859C21.4521 5.93401 20.9754 6.28218 20.73 6.76704L20.7253 6.77639C20.3748 7.26008 20.112 7.83257 19.9718 8.45063L19.9659 8.48217C19.9017 8.77893 19.8643 9.12009 19.8643 9.46942C19.8643 9.48928 19.8643 9.51031 19.8643 9.53017V9.52667C19.8713 9.99751 19.9648 10.445 20.1318 10.8551L20.1225 10.8305C20.3375 11.3878 20.6237 11.6904 20.9684 11.7617C21.0058 11.7652 21.0501 11.7676 21.0945 11.7676C21.5058 11.7676 21.875 11.5876 22.1274 11.3037L22.1285 11.3026C22.6928 10.7488 23.0831 10.0197 23.2139 9.20421L23.2163 9.18318C23.2805 8.88525 23.3179 8.54176 23.3179 8.19009C23.3179 8.16672 23.3179 8.14335 23.3179 8.11998V8.12349C23.3121 7.65265 23.2186 7.20517 23.0527 6.79508L23.0609 6.81962C22.8447 6.26232 22.5585 5.96089 22.2138 5.88962C22.1566 5.87793 22.0911 5.86976 22.0234 5.86976V5.86859ZM30.939 3.46647C31.2147 3.46881 31.4811 3.50036 31.7382 3.55877L31.7136 3.5541C32.7079 3.74337 33.5304 4.35792 33.9977 5.19679L34.0059 5.21315C34.4394 5.97491 34.6952 6.88738 34.6952 7.85828C34.6952 7.9202 34.6941 7.98212 34.6917 8.04404V8.03469C34.6917 8.05573 34.6917 8.07909 34.6917 8.10363C34.6917 9.57691 34.2758 10.9532 33.5561 12.1216L33.5748 12.0888C32.9497 13.3495 31.6832 14.2082 30.2135 14.2374H30.21C29.9342 14.2351 29.6678 14.2035 29.4108 14.1463L29.4365 14.151C28.4411 13.9617 27.6186 13.346 27.1524 12.5059L27.1442 12.4896C26.7096 11.7173 26.4549 10.7932 26.4549 9.81058C26.4549 9.75566 26.4561 9.69958 26.4572 9.64467V9.65285C26.4572 9.63065 26.4572 9.60495 26.4572 9.57808C26.4572 8.11064 26.8732 6.74134 27.5929 5.58001L27.5742 5.61272C28.2062 4.35675 29.4692 3.50152 30.9355 3.46414H30.9402L30.939 3.46647ZM21.958 3.46647C22.2337 3.46881 22.5001 3.50036 22.7571 3.55877L22.7326 3.5541C23.7257 3.74688 24.547 4.36026 25.0167 5.19679L25.0249 5.21315C25.4583 5.97491 25.7142 6.88621 25.7142 7.85828C25.7142 7.9202 25.713 7.98212 25.7107 8.04404V8.03469C25.7107 8.05573 25.7107 8.07909 25.7107 8.10363C25.7107 9.57691 25.2947 10.9532 24.5739 12.1216L24.5926 12.0888C23.9675 13.3495 22.701 14.2082 21.2312 14.2374H21.2277C20.952 14.2351 20.6856 14.2035 20.4286 14.1463L20.4543 14.151C19.4589 13.9617 18.6364 13.346 18.1702 12.5059L18.162 12.4896C17.7274 11.7173 17.4715 10.7932 17.4715 9.81058C17.4715 9.75566 17.4727 9.69958 17.4738 9.64467V9.65285C17.4738 9.63065 17.4738 9.60495 17.4738 9.57925C17.4738 8.11181 17.8898 6.74251 18.6106 5.58118L18.592 5.61389C19.224 4.35792 20.487 3.50269 21.9533 3.46531H21.958V3.46647ZM16.5053 1.91491C16.8044 1.92076 17.0766 2.03058 17.2881 2.20817L17.2857 2.207C17.5381 2.39861 17.7052 2.68953 17.7297 3.02134V3.02484C17.7321 3.05522 17.7332 3.0891 17.7332 3.12415C17.7332 3.33912 17.6783 3.54125 17.5825 3.7165L17.586 3.70949C16.9002 5.21782 16.4095 6.96683 16.205 8.8023L16.198 8.88058C15.9351 10.2849 15.7844 11.9007 15.7844 13.5516C15.7844 13.8285 15.7891 14.1054 15.7973 14.38L15.7961 14.3391C15.8019 14.3928 15.8055 14.4559 15.8055 14.519C15.8055 14.7982 15.7377 15.0611 15.6197 15.2924L15.6244 15.2831C15.4807 15.5717 15.1991 15.7726 14.8684 15.7983H14.8649C14.8603 15.7983 14.8544 15.7983 14.8486 15.7983C14.3999 15.7983 13.9992 15.5939 13.7351 15.2726L13.7328 15.2702C12.2443 13.5913 11.1426 11.5351 10.5865 9.26496L10.5666 9.16799C9.86716 10.5365 9.17939 11.9113 8.50331 13.2922C7.65977 14.9127 6.9424 15.7423 6.34071 15.7855C5.95398 15.8147 5.62568 15.4852 5.3371 14.7971C4.32181 11.6975 3.49345 8.01834 3.00625 4.23407L2.97354 3.9233C2.96303 3.86137 2.95718 3.79011 2.95718 3.71767C2.95718 3.43493 3.04948 3.17205 3.20604 2.96058L3.2037 2.96409C3.41517 2.69537 3.73997 2.52245 4.10567 2.52012C4.16642 2.50726 4.23535 2.50025 4.30545 2.50025C4.88378 2.50025 5.35229 2.96876 5.35229 3.54709V3.5506C5.79626 6.54506 6.28346 9.08153 6.7987 11.1577L9.9357 5.18628C10.1121 4.73062 10.5152 4.39998 11.0024 4.32754L11.0094 4.32637C11.6391 4.28315 12.0259 4.68389 12.1836 5.52977C12.5212 7.39561 12.9921 9.04064 13.6078 10.6132L13.5447 10.4298C13.6954 7.5475 14.3766 4.85914 15.4923 2.41263L15.4363 2.55049C15.6103 2.18947 15.9643 1.94062 16.3803 1.92076H16.3826C16.4231 1.91686 16.464 1.91491 16.5053 1.91491ZM4.70853 0.00116826C2.91279 0.0023366 1.45703 1.45809 1.45703 3.25384C1.45703 3.25851 1.45703 3.26318 1.45703 3.26786V14.1545C1.45703 15.9572 2.91863 17.4212 4.72255 17.4212H18.2333L24.408 20.8596L23.0036 17.4212H33.2325H33.2348C35.0376 17.4212 36.4991 15.9596 36.4991 14.1568V14.1545V3.26669V3.26435C36.4991 1.4616 35.0376 0 33.2348 0H33.2325L4.70853 0.00116826Z" fill="white"/>
</g>
<defs>
<clipPath id="clip0_671_529">
<rect width="36" height="21" fill="white" transform="translate(0.5)"/>
</clipPath>
</defs>
</svg>
