<svg width="32" height="31" viewBox="0 0 32 31" fill="none" xmlns="http://www.w3.org/2000/svg">
<g clip-path="url(#clip0_671_479)">
<path fill-rule="evenodd" clip-rule="evenodd" d="M28.6648 7.80387C28.7293 8.28241 28.7653 8.7937 28.7653 9.34575C28.7653 11.983 28.5208 12.1316 23.0424 27.9684C27.5022 25.3672 30.5025 20.5352 30.5025 15.0012C30.5025 12.3925 29.8364 9.94005 28.6648 7.80387ZM15.7653 16.3139L11.2634 29.3916C14.3012 30.2857 17.5204 30.1946 20.4832 29.1535C20.4427 29.089 20.4067 29.0198 20.3766 28.9463L15.7653 16.3139ZM25.6286 14.2439C25.6286 12.3897 24.9625 11.1051 24.391 10.1061C23.6319 8.86996 22.9179 7.82479 22.9179 6.58868C22.9179 5.21007 23.9649 3.92611 25.4381 3.92611C25.5041 3.92611 25.5671 3.93483 25.6316 3.93783C22.9629 1.49262 19.4076 0 15.5012 0C10.2613 0 5.64993 2.68798 2.96771 6.76082C3.92329 6.79082 5.20588 6.80316 7.93161 6.59015C8.74018 6.54214 8.8347 7.72987 8.02763 7.82438C8.02763 7.82438 7.21456 7.92068 6.30998 7.96868L11.7734 24.2181L15.0557 14.3713L12.7185 7.96722C11.9115 7.92071 11.1464 7.82438 11.1464 7.82438C10.3378 7.77638 10.4323 6.54068 11.2409 6.58868C14.3417 6.8272 15.9288 6.8452 19.1901 6.58868C19.9986 6.54068 20.0946 7.72837 19.2861 7.82438C19.2861 7.82438 18.4715 7.92071 17.5684 7.96722L22.9899 24.0936C25.1306 16.941 25.6286 15.744 25.6286 14.2439ZM0.5 15.0012C0.5 20.9387 3.95029 26.0707 8.9547 28.5024L1.7991 8.896C0.966535 10.7622 0.5 12.8261 0.5 15.0012Z" fill="white"/>
</g>
<defs>
<clipPath id="clip0_671_479">
<rect width="31" height="31" fill="white" transform="translate(0.5)"/>
</clipPath>
</defs>
</svg>
