<svg width="40" height="32" viewBox="0 0 40 32" fill="none" xmlns="http://www.w3.org/2000/svg">
<g clip-path="url(#clip0_676_481)">
<path d="M36.281 9.3903C36.5783 10.4855 36.655 11.629 36.5066 12.7542C36.3582 13.8794 35.9876 14.9637 35.4166 15.9438C34.4557 17.6446 32.9348 18.9579 31.1142 19.6588C30.8057 19.7655 30.49 19.8502 30.1696 19.9125L26.7254 20.8373C23.7541 21.6084 20.6804 21.907 17.6166 21.7222L16.9226 21.6901C13.3327 21.4461 9.81806 20.5434 6.55357 19.0269L6.16376 18.8506L5.45117 16.1856L5.65824 15.9115C9.67682 10.1971 15.5519 6.05953 22.2785 4.2065L25.7227 3.2817C27.931 2.69287 30.2822 3.00514 32.2613 4.15012C34.2403 5.29509 35.6857 7.17942 36.281 9.3903Z" stroke="white" stroke-width="3.30874" stroke-miterlimit="10"/>
<path d="M13.2902 8.33766C10.3078 10.3764 7.7216 12.9433 5.65854 15.9122L5.41281 16.2747L3.16211 7.85743L4.61535 7.46722L13.2902 8.33766Z" stroke="white" stroke-width="3.30874" stroke-miterlimit="10"/>
<path d="M16.896 21.8228L9.72556 26.8699L8.27232 27.2601L6.06445 19.0029L6.45426 19.1792C9.74258 20.6976 13.2826 21.5938 16.896 21.8228Z" stroke="white" stroke-width="3.30874" stroke-miterlimit="10"/>
<path d="M31.1143 19.661L30.6621 27.2901L22.3351 29.526L17.3281 21.9268L17.5897 21.8565C20.6535 22.0413 23.7272 21.7427 26.6986 20.9715L30.1427 20.0467C30.4758 19.9427 30.8006 19.8138 31.1143 19.661Z" stroke="white" stroke-width="3.30874" stroke-miterlimit="10"/>
<path d="M5.76367 17.585L36.2818 9.39056" stroke="white" stroke-width="3.30874" stroke-miterlimit="10"/>
</g>
<defs>
<clipPath id="clip0_676_481">
<rect width="39" height="31" fill="white" transform="translate(0.5 0.5)"/>
</clipPath>
</defs>
</svg>
