<svg width="36" height="24" viewBox="0 0 36 24" fill="none" xmlns="http://www.w3.org/2000/svg">
<path d="M20.33 16.0418C20.3869 16.3268 20.4154 16.8255 20.4154 17.5379V23.1203H18.8766V17.5977C18.8766 16.9708 18.8168 16.5023 18.6972 16.1915C18.5774 15.8808 18.3652 15.6329 18.0603 15.4477C17.7553 15.2627 17.3977 15.1698 16.9874 15.1698C16.3319 15.1698 15.7663 15.3779 15.2904 15.7939C14.8145 16.21 14.5766 16.9994 14.5766 18.162V23.1203H13.0378V14.0414H14.4227V15.3323C15.0895 14.3349 16.0527 13.8362 17.3122 13.8362C17.8593 13.8362 18.3623 13.9345 18.8211 14.1311C19.2799 14.3278 19.6233 14.5857 19.8512 14.9048C20.0792 15.224 20.2387 15.603 20.33 16.0418ZM35.2188 23.1762C34.7856 23.2674 34.398 23.313 34.0561 23.313C33.4976 23.313 33.0644 23.2247 32.7567 23.0479C32.4489 22.8713 32.2324 22.639 32.107 22.3512C31.9816 22.0637 31.9189 21.4579 31.9189 20.5346V15.0525H28.5779C28.5856 15.0607 28.5941 15.0676 28.6018 15.0758C29.3713 15.9022 29.756 17.0648 29.756 18.5638C29.756 18.6549 29.7531 18.7918 29.7474 18.9741H22.9767C23.0337 19.9715 23.3158 20.7352 23.823 21.2652C24.3302 21.7952 24.9629 22.0602 25.7209 22.0602C26.2851 22.0602 26.7667 21.9121 27.1656 21.6157C27.5646 21.3193 27.8809 20.8463 28.1146 20.1966L29.7047 20.3932C29.4539 21.3222 28.9894 22.0431 28.3112 22.5561C27.6329 23.0691 26.7667 23.3256 25.7123 23.3256C24.3843 23.3256 23.3314 22.9166 22.5535 22.0988C21.7755 21.2812 21.3865 20.1339 21.3865 18.6578C21.3865 17.1304 21.7798 15.9449 22.5663 15.1014C23.3528 14.2579 24.373 13.8362 25.6268 13.8362C25.7783 13.8362 25.9269 13.8428 26.0716 13.8556H31.9188V11.8859H33.4491V13.8556H34.9964V15.0524H33.4491V20.62C33.4491 21.0588 33.4761 21.341 33.5302 21.4663C33.5844 21.5917 33.6727 21.6915 33.7953 21.7655C33.9178 21.8396 34.0931 21.8767 34.321 21.8767C34.492 21.8767 34.7171 21.8567 34.9965 21.8168L35.2188 23.1762ZM28.1317 17.7089C28.0633 16.9452 27.8695 16.3724 27.5504 15.9906C27.0602 15.3978 26.4247 15.1015 25.6439 15.1015C24.9372 15.1015 24.343 15.338 23.8615 15.811C23.3799 16.2841 23.1134 16.9167 23.0621 17.7089H28.1317ZM10.8469 21.2718C10.5688 21.2718 10.3328 21.3707 10.1385 21.5719C9.94409 21.7716 9.84781 22.0133 9.84781 22.2988C9.84781 22.5769 9.94409 22.8178 10.1385 23.0207C10.3328 23.2236 10.5688 23.3256 10.8469 23.3256C11.1322 23.3256 11.375 23.2236 11.5747 23.0207C11.775 22.8178 11.8745 22.5769 11.8745 22.2988C11.8745 22.0201 11.7751 21.7785 11.5747 21.5759C11.3749 21.3721 11.1322 21.2718 10.8469 21.2718ZM20.7141 12.4344C19.9162 12.785 18.9103 12.9602 17.6964 12.9602C15.5648 12.9602 14.0887 12.5499 13.268 11.7292C13.2645 11.7257 13.2613 11.7221 13.2579 11.7187L13.6441 12.7465H9.5888L8.96155 10.6776H4.56514L3.95415 12.7465H0L4.71049 0.213794H8.93481L12.0813 8.58731L15.5591 8.36945C15.6389 8.96789 15.8013 9.42395 16.0464 9.73733C16.4454 10.2447 17.0153 10.4982 17.7562 10.4982C18.309 10.4982 18.7351 10.3686 19.0343 10.1092C19.3335 9.84981 19.4831 9.54917 19.4831 9.20726C19.4831 8.88236 19.3407 8.59165 19.0557 8.33527C18.7707 8.07874 18.1095 7.83662 17.0723 7.60856C15.374 7.22687 14.1629 6.71954 13.4391 6.08692C12.7096 5.45422 12.3448 4.64784 12.3448 3.66751C12.3448 3.02351 12.5315 2.41507 12.9048 1.84233C13.2781 1.26953 13.8395 0.819474 14.589 0.491615C15.3384 0.163895 16.3657 0 17.6709 0C19.2724 0 20.4935 0.297946 21.3341 0.893357C22.1747 1.48897 22.6748 2.4365 22.8344 3.73587L19.184 3.94967C19.0872 3.38541 18.8834 2.97505 18.5728 2.7186C18.2622 2.46214 17.8333 2.33395 17.2862 2.33395C16.8359 2.33395 16.4968 2.4294 16.2689 2.62032C16.0409 2.8113 15.9269 3.04349 15.9269 3.31697C15.9269 3.51657 16.0209 3.69618 16.209 3.85552C16.3914 4.02093 16.8246 4.17483 17.5085 4.31716C19.2012 4.68196 20.4136 5.0511 21.146 5.42424C21.8784 5.79752 22.4113 6.26074 22.7446 6.81342C22.9155 7.09661 23.0418 7.39732 23.1251 7.71484V0.213794H29.5625C30.9644 0.213794 32.0145 0.547166 32.7127 1.21398C33.4109 1.88086 33.76 2.8297 33.76 4.06084C33.76 5.32603 33.3794 6.31491 32.6186 7.02728C31.8577 7.73985 30.6965 8.0959 29.1349 8.0959H27.0148V12.7466H23.125V9.65421C23.0165 10.0874 22.8344 10.4999 22.5778 10.8915C22.1332 11.5697 21.512 12.084 20.7141 12.4344ZM27.0146 5.55684H27.9636C28.7102 5.55684 29.2345 5.42727 29.5366 5.16778C29.8387 4.9085 29.9896 4.57665 29.9896 4.17187C29.9896 3.77861 29.8586 3.44523 29.5964 3.17162C29.3343 2.89807 28.8413 2.76126 28.1174 2.76126H27.0146V5.55684ZM8.15828 7.96764L6.77503 3.4624L5.40604 7.96764H8.15828Z" fill="#001B50"/>
</svg>
